<svg width="32" height="32" viewBox="0 0 32 32" fill="none" xmlns="http://www.w3.org/2000/svg">
<path d="M29.2934 24V25.3333C29.2934 27.5333 29.2934 29.3333 25.2934 29.3333H6.62671C2.62671 29.3333 2.62671 27.5333 2.62671 25.3333V24C2.62671 23.2667 3.22671 22.6667 3.96004 22.6667H27.96C28.6934 22.6667 29.2934 23.2667 29.2934 24Z" fill="#008BBA"/>
<path d="M19.2133 6.90667C19.28 6.64 19.32 6.38667 19.3333 6.10667C19.3733 4.56 18.4267 3.2 16.9333 2.8C14.6933 2.18667 12.6667 3.86667 12.6667 6C12.6667 6.32 12.7067 6.61333 12.7867 6.90667C7.97332 7.93333 4.35999 12.2133 4.35999 17.3333V19.3333C4.35999 20.0667 4.95999 20.6667 5.69332 20.6667H26.2933C27.0266 20.6667 27.6266 20.0667 27.6266 19.3333V17.3333C27.6266 12.2133 24.0266 7.94667 19.2133 6.90667ZM20 15.6667H12C11.4533 15.6667 11 15.2133 11 14.6667C11 14.12 11.4533 13.6667 12 13.6667H20C20.5466 13.6667 21 14.12 21 14.6667C21 15.2133 20.5466 15.6667 20 15.6667Z" fill="#008BBA"/>
</svg>
