<svg width="16" height="16" viewBox="0 0 16 16" fill="none" xmlns="http://www.w3.org/2000/svg">
<path d="M14.6667 5.99993V9.99993C14.6667 11.6666 14.3333 12.8333 13.5867 13.5866L9.33334 9.33326L14.4867 4.17993C14.6067 4.7066 14.6667 5.3066 14.6667 5.99993Z" stroke="#6E7191" stroke-linecap="round" stroke-linejoin="round"/>
<path d="M14.4867 4.17992L4.18 14.4866C2.17334 14.0266 1.33334 12.6399 1.33334 9.99992V5.99992C1.33334 2.66659 2.66668 1.33325 6.00001 1.33325H10C12.64 1.33325 14.0267 2.17325 14.4867 4.17992Z" stroke="#6E7191" stroke-linecap="round" stroke-linejoin="round"/>
<path d="M13.5867 13.5866C12.8333 14.3333 11.6667 14.6666 10 14.6666H6C5.30667 14.6666 4.70666 14.6066 4.17999 14.4866L9.33333 9.33325L13.5867 13.5866Z" stroke="#6E7191" stroke-linecap="round" stroke-linejoin="round"/>
<path d="M4.15999 5.31998C4.61333 3.36665 7.54667 3.36665 8 5.31998C8.26 6.46665 7.53999 7.43998 6.90666 8.03998C6.44666 8.47998 5.72 8.47998 5.25334 8.03998C4.62 7.43998 3.89333 6.46665 4.15999 5.31998Z" stroke="#6E7191"/>
<path d="M6.06307 5.80013H6.06906" stroke="#6E7191" stroke-linecap="round" stroke-linejoin="round"/>
</svg>
