<svg width="10" height="10" viewBox="0 0 10 10" fill="none" xmlns="http://www.w3.org/2000/svg">
<path d="M8.31667 3.73337C8.03751 3.42504 7.61667 3.24587 7.03334 3.18337V2.86671C7.03334 2.29587 6.79167 1.74587 6.36667 1.36254C5.93751 0.970873 5.37917 0.78754 4.80001 0.841707C3.80417 0.93754 2.96667 1.90004 2.96667 2.94171V3.18337C2.38334 3.24587 1.96251 3.42504 1.68334 3.73337C1.27917 4.18337 1.29167 4.78337 1.33751 5.20004L1.62917 7.52087C1.71667 8.33337 2.04584 9.16671 3.83751 9.16671H6.16251C7.95417 9.16671 8.28334 8.33337 8.37084 7.52504L8.66251 5.19587C8.70834 4.78337 8.71667 4.18337 8.31667 3.73337ZM4.85834 1.42087C5.27501 1.38337 5.67084 1.51254 5.97917 1.79171C6.28334 2.06671 6.45417 2.45837 6.45417 2.86671V3.15837H3.54584V2.94171C3.54584 2.20004 4.15834 1.48754 4.85834 1.42087ZM3.50834 5.47921H3.50417C3.27501 5.47921 3.08751 5.29171 3.08751 5.06254C3.08751 4.83337 3.27501 4.64587 3.50417 4.64587C3.73751 4.64587 3.92501 4.83337 3.92501 5.06254C3.92501 5.29171 3.73751 5.47921 3.50834 5.47921ZM6.42501 5.47921H6.42084C6.19167 5.47921 6.00417 5.29171 6.00417 5.06254C6.00417 4.83337 6.19167 4.64587 6.42084 4.64587C6.65417 4.64587 6.84167 4.83337 6.84167 5.06254C6.84167 5.29171 6.65417 5.47921 6.42501 5.47921Z" fill="#ff8625"/>
</svg>
