<svg width="24" height="24" viewBox="0 0 24 24" fill="none" xmlns="http://www.w3.org/2000/svg">
<path d="M22.3596 8.27L22.0696 5.5C21.6496 2.48 20.2796 1.25 17.3497 1.25H14.9896H13.5097H10.4697H8.98965H6.58965C3.64965 1.25 2.28965 2.48 1.85965 5.53L1.58965 8.28C1.48965 9.35 1.77965 10.39 2.40965 11.2C3.16965 12.19 4.33965 12.75 5.63965 12.75C6.89965 12.75 8.10965 12.12 8.86965 11.11C9.54965 12.12 10.7097 12.75 11.9997 12.75C13.2896 12.75 14.4197 12.15 15.1096 11.15C15.8797 12.14 17.0696 12.75 18.3096 12.75C19.6396 12.75 20.8396 12.16 21.5896 11.12C22.1896 10.32 22.4597 9.31 22.3596 8.27Z" fill="#292D32"/>
<path d="M11.3491 16.66C10.0791 16.79 9.11914 17.87 9.11914 19.15V21.89C9.11914 22.16 9.33914 22.38 9.60914 22.38H14.3791C14.6491 22.38 14.8691 22.16 14.8691 21.89V19.5C14.8791 17.41 13.6491 16.42 11.3491 16.66Z" fill="#292D32"/>
<path d="M21.3709 14.4V17.38C21.3709 20.14 19.1309 22.38 16.3709 22.38C16.1009 22.38 15.8809 22.16 15.8809 21.89V19.5C15.8809 18.22 15.4909 17.22 14.7309 16.54C14.0609 15.93 13.1509 15.63 12.0209 15.63C11.7709 15.63 11.5209 15.64 11.2509 15.67C9.47086 15.85 8.12086 17.35 8.12086 19.15V21.89C8.12086 22.16 7.90086 22.38 7.63086 22.38C4.87086 22.38 2.63086 20.14 2.63086 17.38V14.42C2.63086 13.72 3.32086 13.25 3.97086 13.48C4.24086 13.57 4.51086 13.64 4.79086 13.68C4.91086 13.7 5.04086 13.72 5.16086 13.72C5.32086 13.74 5.48086 13.75 5.64086 13.75C6.80086 13.75 7.94086 13.32 8.84086 12.58C9.70086 13.32 10.8209 13.75 12.0009 13.75C13.1909 13.75 14.2909 13.34 15.1509 12.6C16.0509 13.33 17.1709 13.75 18.3109 13.75C18.4909 13.75 18.6709 13.74 18.8409 13.72C18.9609 13.71 19.0709 13.7 19.1809 13.68C19.4909 13.64 19.7709 13.55 20.0509 13.46C20.7009 13.24 21.3709 13.72 21.3709 14.4Z" fill="#292D32"/>
</svg>
