<svg width="32" height="32" viewBox="0 0 32 32" fill="none" xmlns="http://www.w3.org/2000/svg">
<circle cx="16" cy="16" r="16" fill="#FFEDF4"/>
<path d="M19.7467 15.1667C19.46 15.1667 19.2334 14.9334 19.2334 14.6534C19.2334 14.4067 18.9867 13.8934 18.5734 13.4467C18.1667 13.0134 17.72 12.7601 17.3467 12.7601C17.06 12.7601 16.8334 12.5267 16.8334 12.2467C16.8334 11.9667 17.0667 11.7334 17.3467 11.7334C18.0134 11.7334 18.7134 12.0934 19.3267 12.7401C19.9 13.3467 20.2667 14.1001 20.2667 14.6467C20.2667 14.9334 20.0334 15.1667 19.7467 15.1667Z" fill="#ff8625"/>
<path d="M22.1533 15.1663C21.8666 15.1663 21.64 14.933 21.64 14.653C21.64 12.2863 19.7133 10.3663 17.3533 10.3663C17.0666 10.3663 16.84 10.133 16.84 9.85301C16.84 9.57301 17.0666 9.33301 17.3466 9.33301C20.28 9.33301 22.6666 11.7197 22.6666 14.653C22.6666 14.933 22.4333 15.1663 22.1533 15.1663Z" fill="#ff8625"/>
<path d="M15.3667 17.9663L14.1334 19.1997C13.8734 19.4597 13.46 19.4597 13.1934 19.2063C13.12 19.133 13.0467 19.0663 12.9734 18.993C12.2867 18.2997 11.6667 17.573 11.1134 16.813C10.5667 16.053 10.1267 15.293 9.80671 14.5397C9.49337 13.7797 9.33337 13.053 9.33337 12.3597C9.33337 11.9063 9.41337 11.473 9.57337 11.073C9.73337 10.6663 9.98671 10.293 10.34 9.95967C10.7667 9.53967 11.2334 9.33301 11.7267 9.33301C11.9134 9.33301 12.1 9.37301 12.2667 9.45301C12.44 9.53301 12.5934 9.65301 12.7134 9.82634L14.26 12.0063C14.38 12.173 14.4667 12.3263 14.5267 12.473C14.5867 12.613 14.62 12.753 14.62 12.8797C14.62 13.0397 14.5734 13.1997 14.48 13.353C14.3934 13.5063 14.2667 13.6663 14.1067 13.8263L13.6 14.353C13.5267 14.4263 13.4934 14.513 13.4934 14.6197C13.4934 14.673 13.5 14.7197 13.5134 14.773C13.5334 14.8263 13.5534 14.8663 13.5667 14.9063C13.6867 15.1263 13.8934 15.413 14.1867 15.7597C14.4867 16.1063 14.8067 16.4597 15.1534 16.813C15.22 16.8797 15.2934 16.9463 15.36 17.013C15.6267 17.273 15.6334 17.6997 15.3667 17.9663Z" fill="#ff8625"/>
<path d="M22.6467 20.2204C22.6467 20.407 22.6134 20.6004 22.5467 20.787C22.5267 20.8404 22.5067 20.8937 22.48 20.947C22.3667 21.187 22.22 21.4137 22.0267 21.627C21.7 21.987 21.34 22.247 20.9334 22.4137C20.9267 22.4137 20.92 22.4204 20.9134 22.4204C20.52 22.5804 20.0934 22.667 19.6334 22.667C18.9534 22.667 18.2267 22.507 17.46 22.1804C16.6934 21.8537 15.9267 21.4137 15.1667 20.8604C14.9067 20.667 14.6467 20.4737 14.4 20.267L16.58 18.087C16.7667 18.227 16.9334 18.3337 17.0734 18.407C17.1067 18.4204 17.1467 18.4404 17.1934 18.4604C17.2467 18.4804 17.3 18.487 17.36 18.487C17.4734 18.487 17.56 18.447 17.6334 18.3737L18.14 17.8737C18.3067 17.707 18.4667 17.5804 18.62 17.5004C18.7734 17.407 18.9267 17.3604 19.0934 17.3604C19.22 17.3604 19.3534 17.387 19.5 17.447C19.6467 17.507 19.8 17.5937 19.9667 17.707L22.1734 19.2737C22.3467 19.3937 22.4667 19.5337 22.54 19.7004C22.6067 19.867 22.6467 20.0337 22.6467 20.2204Z" fill="#ff8625"/>
</svg>
