<svg width="16" height="16" viewBox="0 0 16 16" fill="none" xmlns="http://www.w3.org/2000/svg">
<path d="M14.6467 12.2199C14.6467 12.4599 14.5933 12.7066 14.48 12.9466C14.3667 13.1866 14.22 13.4133 14.0267 13.6266C13.7 13.9866 13.34 14.2466 12.9333 14.4133C12.5333 14.5799 12.1 14.6666 11.6333 14.6666C10.9533 14.6666 10.2267 14.5066 9.46001 14.1799C8.69334 13.8533 7.92668 13.4133 7.16668 12.8599C6.40001 12.2999 5.67334 11.6799 4.98001 10.9933C4.29334 10.2999 3.67334 9.57325 3.12001 8.81325C2.57334 8.05325 2.13334 7.29325 1.81334 6.53992C1.49334 5.77992 1.33334 5.05325 1.33334 4.35992C1.33334 3.90659 1.41334 3.47325 1.57334 3.07325C1.73334 2.66659 1.98668 2.29325 2.34001 1.95992C2.76668 1.53992 3.23334 1.33325 3.72668 1.33325C3.91334 1.33325 4.10001 1.37325 4.26668 1.45325C4.44001 1.53325 4.59334 1.65325 4.71334 1.82659L6.26001 4.00659C6.38001 4.17325 6.46668 4.32659 6.52668 4.47325C6.58668 4.61325 6.62001 4.75325 6.62001 4.87992C6.62001 5.03992 6.57334 5.19992 6.48001 5.35325C6.39334 5.50658 6.26668 5.66658 6.10668 5.82658L5.60001 6.35325C5.52668 6.42658 5.49334 6.51325 5.49334 6.61992C5.49334 6.67325 5.50001 6.71992 5.51334 6.77325C5.53334 6.82658 5.55334 6.86658 5.56668 6.90658C5.68668 7.12658 5.89334 7.41325 6.18668 7.75992C6.48668 8.10659 6.80668 8.45992 7.15334 8.81325C7.51334 9.16658 7.86001 9.49325 8.21334 9.79325C8.56001 10.0866 8.84668 10.2866 9.07334 10.4066C9.10668 10.4199 9.14668 10.4399 9.19334 10.4599C9.24668 10.4799 9.30001 10.4866 9.36001 10.4866C9.47334 10.4866 9.56001 10.4466 9.63334 10.3733L10.14 9.87325C10.3067 9.70659 10.4667 9.57992 10.62 9.49992C10.7733 9.40658 10.9267 9.35992 11.0933 9.35992C11.22 9.35992 11.3533 9.38658 11.5 9.44658C11.6467 9.50658 11.8 9.59325 11.9667 9.70659L14.1733 11.2733C14.3467 11.3933 14.4667 11.5333 14.54 11.6999C14.6067 11.8666 14.6467 12.0333 14.6467 12.2199Z" stroke="#6E7191" stroke-width="1.5" stroke-miterlimit="10"/>
<path d="M12.3333 5.99984C12.3333 5.59984 12.02 4.9865 11.5533 4.4865C11.1267 4.0265 10.56 3.6665 10 3.6665" stroke="#6E7191" stroke-width="1.5" stroke-linecap="round" stroke-linejoin="round"/>
<path d="M14.6667 5.99992C14.6667 3.41992 12.58 1.33325 10 1.33325" stroke="#6E7191" stroke-width="1.5" stroke-linecap="round" stroke-linejoin="round"/>
</svg>
