<svg width="8" height="10" viewBox="0 0 8 10" fill="none" xmlns="http://www.w3.org/2000/svg">
<path d="M7.31667 3.73337C7.03751 3.42504 6.61667 3.24587 6.03334 3.18337V2.86671C6.03334 2.29587 5.79167 1.74587 5.36667 1.36254C4.93751 0.970873 4.37917 0.78754 3.80001 0.841707C2.80417 0.93754 1.96667 1.90004 1.96667 2.94171V3.18337C1.38334 3.24587 0.962506 3.42504 0.683339 3.73337C0.279173 4.18337 0.291673 4.78337 0.337506 5.20004L0.629173 7.52087C0.716673 8.33337 1.04584 9.16671 2.83751 9.16671H5.16251C6.95417 9.16671 7.28334 8.33337 7.37084 7.52504L7.66251 5.19587C7.70834 4.78337 7.71667 4.18337 7.31667 3.73337ZM3.85834 1.42087C4.27501 1.38337 4.67084 1.51254 4.97917 1.79171C5.28334 2.06671 5.45417 2.45837 5.45417 2.86671V3.15837H2.54584V2.94171C2.54584 2.20004 3.15834 1.48754 3.85834 1.42087ZM2.50834 5.47921H2.50417C2.27501 5.47921 2.08751 5.29171 2.08751 5.06254C2.08751 4.83337 2.27501 4.64587 2.50417 4.64587C2.73751 4.64587 2.92501 4.83337 2.92501 5.06254C2.92501 5.29171 2.73751 5.47921 2.50834 5.47921ZM5.42501 5.47921H5.42084C5.19167 5.47921 5.00417 5.29171 5.00417 5.06254C5.00417 4.83337 5.19167 4.64587 5.42084 4.64587C5.65417 4.64587 5.84167 4.83337 5.84167 5.06254C5.84167 5.29171 5.65417 5.47921 5.42501 5.47921Z" fill="#ff8625"/>
</svg>
