<svg width="16" height="16" viewBox="0 0 16 16" fill="none" xmlns="http://www.w3.org/2000/svg">
<path d="M13.1933 9.95338C11.82 11.32 9.85333 11.74 8.12666 11.2L4.98666 14.3334C4.76 14.5667 4.31333 14.7067 3.99333 14.66L2.54 14.46C2.06 14.3934 1.61333 13.94 1.54 13.46L1.34 12.0067C1.29333 11.6867 1.44666 11.24 1.66666 11.0134L4.8 7.88005C4.26666 6.14671 4.68 4.18005 6.05333 2.81338C8.02 0.846712 11.2133 0.846712 13.1867 2.81338C15.16 4.78005 15.16 7.98671 13.1933 9.95338Z" stroke="#6E7191" stroke-miterlimit="10" stroke-linecap="round" stroke-linejoin="round"/>
<path d="M4.59332 11.6599L6.12666 13.1932" stroke="#6E7191" stroke-miterlimit="10" stroke-linecap="round" stroke-linejoin="round"/>
<path d="M9.66666 7.33325C10.2189 7.33325 10.6667 6.88554 10.6667 6.33325C10.6667 5.78097 10.2189 5.33325 9.66666 5.33325C9.11437 5.33325 8.66666 5.78097 8.66666 6.33325C8.66666 6.88554 9.11437 7.33325 9.66666 7.33325Z" stroke="#6E7191" stroke-linecap="round" stroke-linejoin="round"/>
</svg>
