<svg width="28" height="28" viewBox="0 0 28 28" fill="none" xmlns="http://www.w3.org/2000/svg">
<rect width="28" height="28" rx="14" fill="#BDEFFF"/>
<path d="M19.18 12.135L19.035 10.75C18.825 9.24 18.14 8.625 16.675 8.625H15.495H14.755H13.235H12.495H11.295C9.82501 8.625 9.14501 9.24 8.93001 10.765L8.79501 12.14C8.74501 12.675 8.89001 13.195 9.20501 13.6C9.58501 14.095 10.17 14.375 10.82 14.375C11.45 14.375 12.055 14.06 12.435 13.555C12.775 14.06 13.355 14.375 14 14.375C14.645 14.375 15.21 14.075 15.555 13.575C15.94 14.07 16.535 14.375 17.155 14.375C17.82 14.375 18.42 14.08 18.795 13.56C19.095 13.16 19.23 12.655 19.18 12.135Z" fill="#008BBA"/>
<path d="M13.675 16.3301C13.04 16.3951 12.56 16.9351 12.56 17.5751V18.9451C12.56 19.0801 12.67 19.1901 12.805 19.1901H15.19C15.325 19.1901 15.435 19.0801 15.435 18.9451V17.7501C15.44 16.7051 14.825 16.2101 13.675 16.3301Z" fill="#008BBA"/>
<path d="M18.685 15.2V16.69C18.685 18.07 17.565 19.19 16.185 19.19C16.05 19.19 15.94 19.08 15.94 18.945V17.75C15.94 17.11 15.745 16.61 15.365 16.27C15.03 15.965 14.575 15.815 14.01 15.815C13.885 15.815 13.76 15.82 13.625 15.835C12.735 15.925 12.06 16.675 12.06 17.575V18.945C12.06 19.08 11.95 19.19 11.815 19.19C10.435 19.19 9.315 18.07 9.315 16.69V15.21C9.315 14.86 9.66 14.625 9.985 14.74C10.12 14.785 10.255 14.82 10.395 14.84C10.455 14.85 10.52 14.86 10.58 14.86C10.66 14.87 10.74 14.875 10.82 14.875C11.4 14.875 11.97 14.66 12.42 14.29C12.85 14.66 13.41 14.875 14 14.875C14.595 14.875 15.145 14.67 15.575 14.3C16.025 14.665 16.585 14.875 17.155 14.875C17.245 14.875 17.335 14.87 17.42 14.86C17.48 14.855 17.535 14.85 17.59 14.84C17.745 14.82 17.885 14.775 18.025 14.73C18.35 14.62 18.685 14.86 18.685 15.2Z" fill="#008BBA"/>
</svg>
