<svg width="16" height="16" viewBox="0 0 16 16" fill="none" xmlns="http://www.w3.org/2000/svg">
<path d="M12.3133 11.2199L12.5733 13.3266C12.64 13.8799 12.0467 14.2666 11.5733 13.9799L8.78001 12.3199C8.47334 12.3199 8.17335 12.2999 7.88001 12.2599C8.37335 11.6799 8.66668 10.9466 8.66668 10.1532C8.66668 8.25991 7.02668 6.7266 5.00001 6.7266C4.22668 6.7266 3.51335 6.94659 2.92001 7.33325C2.90001 7.16659 2.89334 6.99991 2.89334 6.82658C2.89334 3.79325 5.52668 1.33325 8.78001 1.33325C12.0333 1.33325 14.6667 3.79325 14.6667 6.82658C14.6667 8.62658 13.74 10.2199 12.3133 11.2199Z" stroke="#6E7191" stroke-linecap="round" stroke-linejoin="round"/>
<path d="M8.66668 10.1532C8.66668 10.9465 8.37335 11.6799 7.88002 12.2599C7.22002 13.0599 6.17334 13.5732 5.00001 13.5732L3.26001 14.6065C2.96668 14.7865 2.59334 14.5399 2.63334 14.1999L2.80001 12.8866C1.90667 12.2666 1.33334 11.2732 1.33334 10.1532C1.33334 8.97986 1.96001 7.94654 2.92001 7.33321C3.51335 6.94654 4.22668 6.72656 5.00001 6.72656C7.02668 6.72656 8.66668 8.25987 8.66668 10.1532Z" stroke="#6E7191" stroke-linecap="round" stroke-linejoin="round"/>
</svg>
