<svg width="14" height="14" viewBox="0 0 14 14" fill="none" xmlns="http://www.w3.org/2000/svg">
<path d="M7.66668 5.00004H6.33334V3.66671H7.66668M7.66668 10.3334H6.33334V6.33337H7.66668M7.00001 0.333374C6.12453 0.333374 5.25762 0.505812 4.44879 0.840844C3.63995 1.17588 2.90502 1.66694 2.28596 2.286C1.03572 3.53624 0.333344 5.23193 0.333344 7.00004C0.333344 8.76815 1.03572 10.4638 2.28596 11.7141C2.90502 12.3331 3.63995 12.8242 4.44879 13.1592C5.25762 13.4943 6.12453 13.6667 7.00001 13.6667C8.76812 13.6667 10.4638 12.9643 11.7141 11.7141C12.9643 10.4638 13.6667 8.76815 13.6667 7.00004C13.6667 6.12456 13.4942 5.25765 13.1592 4.44882C12.8242 3.63998 12.3331 2.90505 11.7141 2.286C11.095 1.66694 10.3601 1.17588 9.55123 0.840844C8.7424 0.505812 7.87549 0.333374 7.00001 0.333374Z" fill="#6E7191"/>
</svg>
