<svg width="16" height="16" viewBox="0 0 16 16" fill="none" xmlns="http://www.w3.org/2000/svg">
<path d="M7.33334 1.33325H6.00001C2.66668 1.33325 1.33334 2.66659 1.33334 5.99992V9.99992C1.33334 13.3333 2.66668 14.6666 6.00001 14.6666H10C13.3333 14.6666 14.6667 13.3333 14.6667 9.99992V8.66658" stroke="#6E7191" stroke-linecap="round" stroke-linejoin="round"/>
<path d="M10.6933 2.01326L5.44001 7.26659C5.24001 7.46659 5.04001 7.85992 5.00001 8.14659L4.71334 10.1533C4.60668 10.8799 5.12001 11.3866 5.84668 11.2866L7.85334 10.9999C8.13334 10.9599 8.52668 10.7599 8.73334 10.5599L13.9867 5.30659C14.8933 4.39992 15.32 3.34659 13.9867 2.01326C12.6533 0.679924 11.6 1.10659 10.6933 2.01326Z" stroke="#6E7191" stroke-miterlimit="10" stroke-linecap="round" stroke-linejoin="round"/>
<path d="M9.94 2.7666C10.3867 4.35993 11.6333 5.6066 13.2333 6.05993" stroke="#6E7191" stroke-miterlimit="10" stroke-linecap="round" stroke-linejoin="round"/>
</svg>
