<svg width="24" height="24" viewBox="0 0 24 24" fill="none" xmlns="http://www.w3.org/2000/svg">
<rect width="24" height="24" fill="#CFCFCF"/>
<rect width="360" height="800" transform="translate(-308 -154)" fill="white"/>
<rect x="-292" y="-12" width="328" height="80" rx="8" fill="#F7F7FC"/>
<circle cx="12" cy="12" r="12" fill="#ff8625"/>
<path fill-rule="evenodd" clip-rule="evenodd" d="M10.2509 17.3519L16.1085 9.77696C16.4269 9.36847 16.5401 8.8962 16.4339 8.41533C16.342 7.97817 16.0731 7.56251 15.6699 7.24719L14.6866 6.46604C13.8306 5.78523 12.7694 5.85689 12.161 6.63804L11.5031 7.49157C11.4182 7.59835 11.4394 7.75601 11.5455 7.84201C11.5455 7.84201 13.208 9.17497 13.2434 9.20364C13.3566 9.31114 13.4415 9.45447 13.4627 9.62646C13.4981 9.96329 13.2646 10.2786 12.918 10.3216C12.7553 10.3431 12.5996 10.2929 12.4864 10.1998L10.7391 8.80948C10.6542 8.7457 10.5268 8.75932 10.4561 8.84532L6.30343 14.2202C6.0346 14.557 5.94263 14.9942 6.0346 15.417L6.56518 17.7174C6.59348 17.8393 6.69959 17.9253 6.82693 17.9253L9.16148 17.8966C9.58594 17.8894 9.98211 17.6959 10.2509 17.3519ZM13.5198 16.6355H17.3265C17.6979 16.6355 18 16.9415 18 17.3178C18 17.6947 17.6979 18 17.3265 18H13.5198C13.1484 18 12.8463 17.6947 12.8463 17.3178C12.8463 16.9415 13.1484 16.6355 13.5198 16.6355Z" fill="url(#paint0_linear_1_1415)"/>
<defs>
<linearGradient id="paint0_linear_1_1415" x1="12" y1="6" x2="12" y2="18" gradientUnits="userSpaceOnUse">
<stop stop-color="white" stop-opacity="0.86"/>
<stop offset="1" stop-color="white" stop-opacity="0.76"/>
</linearGradient>
</defs>
</svg>
