<svg width="10" height="10" viewBox="0 0 10 10" fill="none" xmlns="http://www.w3.org/2000/svg">
<path fill-rule="evenodd" clip-rule="evenodd" d="M3.6882 9.01395L8.08139 3.33272C8.32015 3.02635 8.40504 2.67215 8.32546 2.31149C8.25648 1.98363 8.05486 1.67189 7.75243 1.43539L7.01493 0.849532C6.37293 0.33892 5.57706 0.392668 5.12076 0.978529L4.62732 1.61867C4.56365 1.69876 4.57957 1.81701 4.65916 1.88151C4.65916 1.88151 5.90602 2.88123 5.93255 2.90273C6.01744 2.98335 6.08111 3.09085 6.09703 3.21985C6.12356 3.47247 5.94846 3.70896 5.68848 3.74121C5.56645 3.75733 5.44972 3.71971 5.36483 3.64984L4.0543 2.60711C3.99063 2.55928 3.89512 2.56949 3.84207 2.63399L0.727569 6.66514C0.525949 6.91775 0.456974 7.24562 0.525949 7.56274L0.923883 9.28807C0.945106 9.37944 1.02469 9.44394 1.1202 9.44394L2.87111 9.42244C3.18945 9.41707 3.48658 9.27194 3.6882 9.01395ZM6.13984 8.47663H8.99489C9.27344 8.47663 9.5 8.70613 9.5 8.98831C9.5 9.27103 9.27344 9.5 8.99489 9.5H6.13984C5.86129 9.5 5.63473 9.27103 5.63473 8.98831C5.63473 8.70613 5.86129 8.47663 6.13984 8.47663Z" fill="#00749B"/>
</svg>
