<svg width="12" height="12" viewBox="0 0 12 12" fill="none" xmlns="http://www.w3.org/2000/svg">
<path d="M10.415 4.00501L7.13998 1.38501C6.49998 0.875009 5.49998 0.870009 4.86498 1.38001L1.58998 4.00501C1.11998 4.38001 0.834981 5.13001 0.934981 5.72001L1.56498 9.49001C1.70998 10.335 2.49498 11 3.34998 11H8.64998C9.49498 11 10.295 10.32 10.44 9.48501L11.07 5.71501C11.16 5.13001 10.875 4.38001 10.415 4.00501ZM6.37498 9.00001C6.37498 9.20501 6.20498 9.37501 5.99998 9.37501C5.79498 9.37501 5.62498 9.20501 5.62498 9.00001V7.50001C5.62498 7.29501 5.79498 7.12501 5.99998 7.12501C6.20498 7.12501 6.37498 7.29501 6.37498 7.50001V9.00001Z" fill="#008BBA"/>
</svg>
