<svg width="16" height="16" viewBox="0 0 16 16" fill="none" xmlns="http://www.w3.org/2000/svg">
<path d="M13.8867 5.33993L9.52 1.8466C8.66667 1.1666 7.33333 1.15993 6.48667 1.83993L2.12 5.33993C1.49333 5.83993 1.11333 6.83993 1.24667 7.6266L2.08667 12.6533C2.28 13.7799 3.32667 14.6666 4.46667 14.6666H11.5333C12.66 14.6666 13.7267 13.7599 13.92 12.6466L14.76 7.61993C14.88 6.83993 14.5 5.83993 13.8867 5.33993ZM8.5 11.9999C8.5 12.2733 8.27333 12.4999 8 12.4999C7.72667 12.4999 7.5 12.2733 7.5 11.9999V9.99993C7.5 9.7266 7.72667 9.49993 8 9.49993C8.27333 9.49993 8.5 9.7266 8.5 9.99993V11.9999Z" fill="#6E7191"/>
</svg>
