<svg width="12" height="12" viewBox="0 0 12 12" fill="none" xmlns="http://www.w3.org/2000/svg">
<path d="M10.31 4.225C9.78505 1.915 7.77005 0.875 6.00005 0.875C6.00005 0.875 6.00005 0.875 5.99505 0.875C4.23005 0.875 2.21005 1.91 1.68505 4.22C1.10005 6.8 2.68005 8.985 4.11005 10.36C4.64005 10.87 5.32005 11.125 6.00005 11.125C6.68005 11.125 7.36005 10.87 7.88505 10.36C9.31505 8.985 10.895 6.805 10.31 4.225ZM6.00005 6.73C5.13005 6.73 4.42505 6.025 4.42505 5.155C4.42505 4.285 5.13005 3.58 6.00005 3.58C6.87005 3.58 7.57505 4.285 7.57505 5.155C7.57505 6.025 6.87005 6.73 6.00005 6.73Z" fill="#6E7191"/>
</svg>
