<svg width="32" height="32" viewBox="0 0 32 32" fill="none" xmlns="http://www.w3.org/2000/svg">
<circle cx="16" cy="16" r="16" fill="#FFEDF4"/>
<path d="M13.0866 10.3804C13.2062 10.3152 13.3333 10.4156 13.3333 10.5518V19.5737C13.3333 19.7316 13.2252 19.8648 13.0866 19.9404V19.9404L11.5199 20.8338C10.4266 21.4604 9.52661 20.9404 9.52661 19.6738V13.1871C9.52661 12.7671 9.82661 12.2471 10.1999 12.0338L13.0866 10.3804V10.3804Z" fill="#ff8625"/>
<path d="M17.7219 12.0224C17.8922 12.1067 18 12.2804 18 12.4704V20.8704C18 21.2389 17.615 21.4808 17.283 21.3209L14.783 20.1164C14.61 20.0331 14.5 19.858 14.5 19.666V11.2323C14.5 10.8615 14.8896 10.6197 15.2219 10.7843L17.7219 12.0224Z" fill="#ff8625"/>
<path d="M22.6666 12.327V18.8137C22.6666 19.2337 22.3666 19.7537 21.9933 19.967L19.9152 21.158C19.5819 21.349 19.1666 21.1084 19.1666 20.7242V12.3174C19.1666 12.1378 19.2629 11.9721 19.4188 11.8831L20.6733 11.167C21.7666 10.5404 22.6666 11.0604 22.6666 12.327Z" fill="#ff8625"/>
</svg>
