<svg width="12" height="14" viewBox="0 0 12 14" fill="none" xmlns="http://www.w3.org/2000/svg">
<path d="M8.66667 0.333252H3.33333C1 0.333252 0 1.66659 0 3.66658V10.3333C0 12.3333 1 13.6666 3.33333 13.6666H8.66667C11 13.6666 12 12.3333 12 10.3333V3.66658C12 1.66659 11 0.333252 8.66667 0.333252ZM3.33333 7.16658H6C6.27333 7.16658 6.5 7.39325 6.5 7.66658C6.5 7.93992 6.27333 8.16658 6 8.16658H3.33333C3.06 8.16658 2.83333 7.93992 2.83333 7.66658C2.83333 7.39325 3.06 7.16658 3.33333 7.16658ZM8.66667 10.8333H3.33333C3.06 10.8333 2.83333 10.6066 2.83333 10.3333C2.83333 10.0599 3.06 9.83325 3.33333 9.83325H8.66667C8.94 9.83325 9.16667 10.0599 9.16667 10.3333C9.16667 10.6066 8.94 10.8333 8.66667 10.8333ZM10.3333 5.16658H9C7.98667 5.16658 7.16667 4.34658 7.16667 3.33325V1.99992C7.16667 1.72659 7.39333 1.49992 7.66667 1.49992C7.94 1.49992 8.16667 1.72659 8.16667 1.99992V3.33325C8.16667 3.79325 8.54 4.16658 9 4.16658H10.3333C10.6067 4.16658 10.8333 4.39325 10.8333 4.66658C10.8333 4.93992 10.6067 5.16658 10.3333 5.16658Z" fill="#6E7191"/>
</svg>
