<svg width="16" height="16" viewBox="0 0 16 16" fill="none" xmlns="http://www.w3.org/2000/svg">
<path d="M12.3134 11.22L12.5734 13.3266C12.6401 13.88 12.0467 14.2666 11.5734 13.98L9.26672 12.6066C9.10672 12.5133 9.06672 12.3133 9.15338 12.1533C9.48672 11.54 9.66672 10.8466 9.66672 10.1533C9.66672 7.71331 7.57338 5.72665 5.00005 5.72665C4.47338 5.72665 3.96005 5.80665 3.48005 5.96665C3.23338 6.04665 2.99338 5.81998 3.05338 5.56665C3.66005 3.13998 5.99339 1.33331 8.78005 1.33331C12.0334 1.33331 14.6667 3.79331 14.6667 6.82665C14.6667 8.62665 13.7401 10.22 12.3134 11.22Z" fill="#ff8625"/>
<path d="M8.66671 10.1534C8.66671 10.9467 8.37337 11.68 7.88004 12.26C7.22004 13.06 6.17337 13.5734 5.00004 13.5734L3.26004 14.6067C2.96671 14.7867 2.59337 14.54 2.63337 14.2L2.80004 12.8867C1.90671 12.2667 1.33337 11.2734 1.33337 10.1534C1.33337 8.98002 1.96004 7.94668 2.92004 7.33335C3.51337 6.94668 4.22671 6.72668 5.00004 6.72668C7.02671 6.72668 8.66671 8.26002 8.66671 10.1534Z" fill="#ff8625"/>
</svg>
