<svg width="14" height="14" viewBox="0 0 14 14" fill="none" xmlns="http://www.w3.org/2000/svg">
<path d="M13.3533 6.24667L12.34 5.23334C12.1667 5.06 12.0267 4.72 12.0267 4.48V3.04C12.0267 2.45334 11.5467 1.97334 10.96 1.97334H9.52667C9.28667 1.97334 8.94667 1.83334 8.77334 1.66L7.76 0.64667C7.34667 0.233337 6.66667 0.233337 6.25334 0.64667L5.22667 1.66C5.06 1.83334 4.72 1.97334 4.47334 1.97334H3.04C2.45334 1.97334 1.97334 2.45334 1.97334 3.04V4.47334C1.97334 4.71334 1.83334 5.05334 1.66 5.22667L0.64667 6.24C0.233337 6.65334 0.233337 7.33334 0.64667 7.74667L1.66 8.76C1.83334 8.93334 1.97334 9.27334 1.97334 9.51334V10.9467C1.97334 11.5333 2.45334 12.0133 3.04 12.0133H4.47334C4.71334 12.0133 5.05334 12.1533 5.22667 12.3267L6.24 13.34C6.65334 13.7533 7.33334 13.7533 7.74667 13.34L8.76 12.3267C8.93334 12.1533 9.27334 12.0133 9.51334 12.0133H10.9467C11.5333 12.0133 12.0133 11.5333 12.0133 10.9467V9.51334C12.0133 9.27334 12.1533 8.93334 12.3267 8.76L13.34 7.74667C13.7733 7.34 13.7733 6.66 13.3533 6.24667ZM4.33334 5C4.33334 4.63334 4.63334 4.33334 5 4.33334C5.36667 4.33334 5.66667 4.63334 5.66667 5C5.66667 5.36667 5.37334 5.66667 5 5.66667C4.63334 5.66667 4.33334 5.36667 4.33334 5ZM5.35334 9.35334C5.25334 9.45334 5.12667 9.5 5 9.5C4.87334 9.5 4.74667 9.45334 4.64667 9.35334C4.45334 9.16 4.45334 8.84 4.64667 8.64667L8.64667 4.64667C8.84 4.45334 9.16 4.45334 9.35334 4.64667C9.54667 4.84 9.54667 5.16 9.35334 5.35334L5.35334 9.35334ZM9 9.66667C8.62667 9.66667 8.32667 9.36667 8.32667 9C8.32667 8.63334 8.62667 8.33334 8.99334 8.33334C9.36 8.33334 9.66 8.63334 9.66 9C9.66 9.36667 9.36667 9.66667 9 9.66667Z" fill="#6E7191"/>
</svg>
