<svg width="12" height="12" viewBox="0 0 12 12" fill="none" xmlns="http://www.w3.org/2000/svg">
<path d="M10.545 3.49001C10.12 3.02001 9.41002 2.78501 8.38002 2.78501H8.26002V2.76501C8.26002 1.92501 8.26002 0.88501 6.38002 0.88501H5.62002C3.74002 0.88501 3.74002 1.93001 3.74002 2.76501V2.79001H3.62002C2.58502 2.79001 1.88002 3.02501 1.45502 3.49501C0.960019 4.04501 0.975019 4.78501 1.02502 5.29001L1.03002 5.32501L1.05747 5.61329C1.07174 5.76307 1.1525 5.89867 1.27894 5.9802C1.39215 6.0532 1.52906 6.13948 1.62002 6.19001C1.69002 6.23501 1.76502 6.27501 1.84002 6.31501C2.69502 6.78501 3.63502 7.10001 4.59002 7.25501C4.63502 7.72501 4.84002 8.27501 5.93502 8.27501C7.03002 8.27501 7.24502 7.73001 7.28002 7.24501C8.30002 7.08001 9.28502 6.72501 10.175 6.20501C10.205 6.19001 10.225 6.17501 10.25 6.16001C10.428 6.05942 10.6119 5.93788 10.7833 5.81623C10.8775 5.7494 10.9373 5.64477 10.95 5.53001L10.975 5.29501C10.98 5.26501 10.98 5.24001 10.985 5.20501C11.025 4.70001 11.015 4.01001 10.545 3.49001ZM6.54502 6.91501C6.54502 7.44501 6.54502 7.52501 5.93002 7.52501C5.31502 7.52501 5.31502 7.43001 5.31502 6.92001V6.29001H6.54502V6.91501ZM4.45502 2.78501V2.76501C4.45502 1.91501 4.45502 1.60001 5.62002 1.60001H6.38002C7.54502 1.60001 7.54502 1.92001 7.54502 2.76501V2.79001H4.45502V2.78501Z" fill="#008BBA"/>
<path d="M10.0306 7.05699C10.3864 6.89348 10.7942 7.17465 10.7588 7.56464L10.6199 9.09498C10.5149 10.095 10.1049 11.115 7.90492 11.115H4.09492C1.89492 11.115 1.48492 10.095 1.37992 9.09998L1.24921 7.66215C1.21417 7.27669 1.61258 6.99597 1.96722 7.15102C2.50062 7.38423 3.19572 7.67127 3.70648 7.82157C3.86942 7.86952 4.00114 7.98905 4.08543 8.13651C4.41176 8.70744 5.04534 9.00998 5.93492 9.00998C6.81589 9.00998 7.45626 8.69566 7.78425 8.12172C7.8686 7.97413 8.00033 7.85477 8.16326 7.80629C8.71119 7.64326 9.46319 7.31774 10.0306 7.05699Z" fill="#008BBA"/>
</svg>
