<svg width="16" height="16" viewBox="0 0 16 16" fill="none" xmlns="http://www.w3.org/2000/svg">
<path d="M12.6467 14.6666H3.31332C1.31332 14.6666 1.31332 13.7666 1.31332 12.6666V11.9999C1.31332 11.6333 1.61332 11.3333 1.97999 11.3333H13.98C14.3467 11.3333 14.6467 11.6333 14.6467 11.9999V12.6666C14.6467 13.7666 14.6467 14.6666 12.6467 14.6666Z" stroke="#6E7191" stroke-linecap="round" stroke-linejoin="round"/>
<path d="M13.8133 8.66659V11.3333H2.17999V8.66659C2.17999 6.10659 3.98666 3.96659 6.39333 3.45325C6.75333 3.37325 7.12666 3.33325 7.51333 3.33325H8.47999C8.86666 3.33325 9.24666 3.37325 9.60666 3.45325C12.0133 3.97325 13.8133 6.10659 13.8133 8.66659Z" stroke="#6E7191" stroke-linecap="round" stroke-linejoin="round"/>
<path d="M9.66668 2.99992C9.66668 3.15992 9.64668 3.30659 9.60668 3.45325C9.24668 3.37325 8.86668 3.33325 8.48001 3.33325H7.51334C7.12668 3.33325 6.75334 3.37325 6.39334 3.45325C6.35334 3.30659 6.33334 3.15992 6.33334 2.99992C6.33334 2.07992 7.08001 1.33325 8.00001 1.33325C8.92001 1.33325 9.66668 2.07992 9.66668 2.99992Z" stroke="#6E7191" stroke-linecap="round" stroke-linejoin="round"/>
<path d="M10 7.33325H6" stroke="#6E7191" stroke-linecap="round" stroke-linejoin="round"/>
</svg>
