<svg width="14" height="14" viewBox="0 0 14 14" fill="none" xmlns="http://www.w3.org/2000/svg">
<path d="M9.79338 0.333252H4.20671C1.78004 0.333252 0.333374 1.77992 0.333374 4.20658V9.78658C0.333374 12.2199 1.78004 13.6666 4.20671 13.6666H9.78671C12.2134 13.6666 13.66 12.2199 13.66 9.79325V4.20658C13.6667 1.77992 12.22 0.333252 9.79338 0.333252ZM4.33337 7.66658C3.96004 7.66658 3.66671 7.36658 3.66671 6.99992C3.66671 6.63325 3.96671 6.33325 4.33337 6.33325C4.70004 6.33325 5.00004 6.63325 5.00004 6.99992C5.00004 7.36658 4.70671 7.66658 4.33337 7.66658ZM7.00004 7.66658C6.62671 7.66658 6.33337 7.36658 6.33337 6.99992C6.33337 6.63325 6.63337 6.33325 7.00004 6.33325C7.36671 6.33325 7.66671 6.63325 7.66671 6.99992C7.66671 7.36658 7.37337 7.66658 7.00004 7.66658ZM9.66671 7.66658C9.29337 7.66658 9.00004 7.36658 9.00004 6.99992C9.00004 6.63325 9.30004 6.33325 9.66671 6.33325C10.0334 6.33325 10.3334 6.63325 10.3334 6.99992C10.3334 7.36658 10.04 7.66658 9.66671 7.66658Z" fill="#008BBA"/>
</svg>
