<svg width="73" height="62" viewBox="0 0 73 62" fill="none" xmlns="http://www.w3.org/2000/svg">
<path d="M53.6759 9.76855L35.5098 47.0328L17.5227 38.2642L35.6888 0.999934L53.6759 9.76855Z" fill="#6FF8A6"/>
<path d="M53.6759 9.76855L35.5098 47.0328L17.5227 38.2642L35.6888 0.999934L53.6759 9.76855Z" stroke="#474747" stroke-width="0.826071" stroke-miterlimit="10" stroke-linecap="round" stroke-linejoin="round"/>
<path d="M46.5513 8.84443L40.8015 6.04102C39.7097 8.28022 37.0095 9.21037 34.7703 8.11858L20.5919 37.1996L34.4505 43.9564L48.629 14.8756C46.3898 13.7838 45.4597 11.0836 46.5513 8.84443Z" fill="#F6F9EA"/>
<path d="M46.5513 8.84443L40.8015 6.04102C39.7097 8.28022 37.0095 9.21037 34.7703 8.11858L20.5919 37.1996L34.4505 43.9564L48.629 14.8756C46.3898 13.7838 45.4597 11.0836 46.5513 8.84443Z" stroke="#474747" stroke-width="0.826071" stroke-miterlimit="10" stroke-linecap="round" stroke-linejoin="round"/>
<path d="M36.7513 4.06372L50.6107 10.8192L34.4587 43.9561L20.5994 37.2007L36.7513 4.06372Z" stroke="#474747" stroke-width="0.826071" stroke-miterlimit="10" stroke-linecap="round" stroke-linejoin="round"/>
<path d="M36.9732 25.8294C39.5823 25.8294 41.6973 23.7143 41.6973 21.1053C41.6973 18.4962 39.5823 16.3811 36.9732 16.3811C34.3641 16.3811 32.249 18.4962 32.249 21.1053C32.249 23.7143 34.3641 25.8294 36.9732 25.8294Z" fill="#77BA85"/>
<path d="M36.9732 25.8294C39.5823 25.8294 41.6973 23.7143 41.6973 21.1053C41.6973 18.4962 39.5823 16.3811 36.9732 16.3811C34.3641 16.3811 32.249 18.4962 32.249 21.1053C32.249 23.7143 34.3641 25.8294 36.9732 25.8294Z" stroke="#474747" stroke-width="0.826071" stroke-miterlimit="10" stroke-linecap="round" stroke-linejoin="round"/>
<path d="M67.1978 22.5447L35.1387 48.8287L22.4517 33.3541L54.5107 7.07007L67.1978 22.5447Z" fill="#1AB759"/>
<path d="M67.1978 22.5447L35.1387 48.8287L22.4517 33.3541L54.5107 7.07007L67.1978 22.5447Z" stroke="#474747" stroke-width="0.826071" stroke-miterlimit="10" stroke-linecap="round" stroke-linejoin="round"/>
<path d="M61.1015 18.7359L57.0457 13.7891C55.1193 15.3686 52.2772 15.0873 50.6978 13.1609L25.6787 33.6736L35.4542 45.5966L60.4732 25.0838C58.8938 23.1573 59.1751 20.3154 61.1015 18.7359Z" fill="#F6F9EA"/>
<path d="M61.1015 18.7359L57.0457 13.7891C55.1193 15.3686 52.2772 15.0873 50.6978 13.1609L25.6787 33.6736L35.4542 45.5966L60.4732 25.0838C58.8938 23.1573 59.1751 20.3154 61.1015 18.7359Z" stroke="#474747" stroke-width="0.826071" stroke-miterlimit="10" stroke-linecap="round" stroke-linejoin="round"/>
<path d="M54.1871 10.3L63.9624 22.2232L35.4549 45.5954L25.6796 33.6723L54.1871 10.3Z" stroke="#474747" stroke-width="0.826071" stroke-miterlimit="10" stroke-linecap="round" stroke-linejoin="round"/>
<path d="M47.2813 30.606C49.8904 30.606 52.0055 28.491 52.0055 25.8819C52.0055 23.2728 49.8904 21.1577 47.2813 21.1577C44.6722 21.1577 42.5571 23.2728 42.5571 25.8819C42.5571 28.491 44.6722 30.606 47.2813 30.606Z" fill="#6FF8A6"/>
<path d="M47.2813 30.606C49.8904 30.606 52.0055 28.491 52.0055 25.8819C52.0055 23.2728 49.8904 21.1577 47.2813 21.1577C44.6722 21.1577 42.5571 23.2728 42.5571 25.8819C42.5571 28.491 44.6722 30.606 47.2813 30.606Z" stroke="#474747" stroke-width="0.826071" stroke-miterlimit="10" stroke-linecap="round" stroke-linejoin="round"/>
<path opacity="0.32" d="M47.8107 20.9355C47.8107 18.4875 46.8917 16.2512 45.3825 14.5493L22.447 33.3536L35.1342 48.8281L47.8107 38.4349V20.9355Z" fill="#474747" stroke="#474747" stroke-width="0.826071" stroke-miterlimit="10" stroke-linecap="round" stroke-linejoin="round"/>
<path d="M38.1732 60.9999H9.26071C4.69846 60.9999 1 57.3014 1 52.7392V20.247C1 15.6848 4.69846 11.9863 9.26071 11.9863H38.1732C42.7355 11.9863 46.4339 15.6848 46.4339 20.247V52.7392C46.4339 57.3014 42.7355 60.9999 38.1732 60.9999Z" fill="#FF80B5"/>
<path d="M38.1732 60.9999H9.26071C4.69846 60.9999 1 57.3014 1 52.7392V20.247C1 15.6848 4.69846 11.9863 9.26071 11.9863H38.1732C42.7355 11.9863 46.4339 15.6848 46.4339 20.247V52.7392C46.4339 57.3014 42.7355 60.9999 38.1732 60.9999Z" fill="#FF80B5"/>
<path d="M38.1732 59.3313H9.26071C4.69846 59.3313 1 55.6328 1 51.0706V52.7392C1 57.3015 4.69846 60.9999 9.26071 60.9999H38.1732C42.7355 60.9999 46.4339 57.3015 46.4339 52.7392V51.0706C46.4339 55.6328 42.7355 59.3313 38.1732 59.3313Z" fill="#FF63A4"/>
<path d="M38.1732 11.9863H9.26071C4.69846 11.9863 1 15.3845 1 19.5764V21.3475C1 17.1556 4.69846 13.7574 9.26071 13.7574H38.1732C42.7355 13.7574 46.4339 17.1556 46.4339 21.3475V19.5764C46.4339 15.3846 42.7355 11.9863 38.1732 11.9863Z" fill="#FFB0D1"/>
<path opacity="0.3" d="M28.5357 32.1529H21.101C19.7324 32.1529 18.6228 31.0434 18.6228 29.6747V14.4645C18.6228 13.0959 19.7324 11.9863 21.101 11.9863H31.0139V29.6747C31.0139 31.0434 29.9043 32.1529 28.5357 32.1529Z" fill="#474747" stroke="#474747" stroke-width="0.826071" stroke-miterlimit="10" stroke-linecap="round" stroke-linejoin="round"/>
<path d="M38.1732 60.9999H9.26071C4.69846 60.9999 1 57.3014 1 52.7392V20.247C1 15.6848 4.69846 11.9863 9.26071 11.9863H38.1732C42.7355 11.9863 46.4339 15.6848 46.4339 20.247V52.7392C46.4339 57.3014 42.7355 60.9999 38.1732 60.9999Z" stroke="#474747" stroke-width="0.826071" stroke-miterlimit="10" stroke-linecap="round" stroke-linejoin="round"/>
<g opacity="0.46">
<path d="M4.02905 52.5287V20.4569C4.02905 17.5674 6.37138 15.2251 9.26084 15.2251H38.1733C41.0628 15.2251 43.4051 17.5674 43.4051 20.4569V52.5287C43.4051 55.4181 41.0628 57.7605 38.1733 57.7605H9.26084C6.37138 57.7605 4.02905 55.4181 4.02905 52.5287Z" stroke="#474747" stroke-width="0.550714" stroke-linecap="round" stroke-linejoin="round" stroke-dasharray="1.92 1.37"/>
</g>
<path d="M27.4343 30.6385H19.9997C18.631 30.6385 17.5215 29.5289 17.5215 28.1602V11.3635C17.5215 9.9948 18.631 8.88525 19.9997 8.88525H27.4343C28.803 8.88525 29.9125 9.9948 29.9125 11.3635V28.1602C29.9125 29.5289 28.803 30.6385 27.4343 30.6385Z" fill="#FF8DBD"/>
<path d="M27.4343 29.4912H19.9997C18.631 29.4912 17.5215 28.3816 17.5215 27.0129V28.1602C17.5215 29.5289 18.631 30.6384 19.9997 30.6384H27.4343C28.803 30.6384 29.9125 29.5289 29.9125 28.1602V27.0129C29.9125 28.3816 28.803 29.4912 27.4343 29.4912Z" fill="#FF80B5"/>
<path d="M27.4343 8.88525H19.9997C18.631 8.88525 17.5215 9.9948 17.5215 11.3635V12.2998C17.5215 10.9312 18.631 9.8216 19.9997 9.8216H27.4343C28.803 9.8216 29.9125 10.9312 29.9125 12.2998V11.3635C29.9125 9.9948 28.803 8.88525 27.4343 8.88525Z" fill="#FF80B5"/>
<path d="M27.4343 30.6385H19.9997C18.631 30.6385 17.5215 29.5289 17.5215 28.1602V11.3635C17.5215 9.9948 18.631 8.88525 19.9997 8.88525H27.4343C28.803 8.88525 29.9125 9.9948 29.9125 11.3635V28.1602C29.9125 29.5289 28.803 30.6385 27.4343 30.6385Z" stroke="#474747" stroke-width="0.826071" stroke-miterlimit="10" stroke-linecap="round" stroke-linejoin="round"/>
<path opacity="0.3" d="M24.13 27.1003C25.8979 27.1003 27.331 25.6671 27.331 23.8993C27.331 22.1314 25.8979 20.6982 24.13 20.6982C22.3621 20.6982 20.929 22.1314 20.929 23.8993C20.929 25.6671 22.3621 27.1003 24.13 27.1003Z" fill="#474747" stroke="#474747" stroke-width="0.826071" stroke-miterlimit="10" stroke-linecap="round" stroke-linejoin="round"/>
<g opacity="0.46">
<path d="M19.9997 28.9865C19.5441 28.9865 19.1736 28.616 19.1736 28.1604V11.3637C19.1736 10.9081 19.5441 10.5376 19.9997 10.5376H27.4343C27.8899 10.5376 28.2604 10.9081 28.2604 11.3637V28.1604C28.2604 28.616 27.8899 28.9865 27.4343 28.9865H19.9997Z" stroke="#474747" stroke-width="0.550714" stroke-linecap="round" stroke-linejoin="round" stroke-dasharray="1.35 1.63"/>
</g>
<path d="M23.7169 26.2741C25.4848 26.2741 26.9179 24.841 26.9179 23.0731C26.9179 21.3052 25.4848 19.8721 23.7169 19.8721C21.949 19.8721 20.5159 21.3052 20.5159 23.0731C20.5159 24.841 21.949 26.2741 23.7169 26.2741Z" fill="#8F6D5D"/>
<path d="M23.7169 26.2741C25.4848 26.2741 26.9179 24.841 26.9179 23.0731C26.9179 21.3052 25.4848 19.8721 23.7169 19.8721C21.949 19.8721 20.5159 21.3052 20.5159 23.0731C20.5159 24.841 21.949 26.2741 23.7169 26.2741Z" stroke="#474747" stroke-width="0.826071" stroke-miterlimit="10" stroke-linecap="round" stroke-linejoin="round"/>
<g opacity="0.6">
<path d="M25.0669 21.4322C25.1833 21.9528 24.5613 22.2868 23.6448 22.4758C22.7267 22.6573 21.902 22.688 21.7892 22.2469C21.6727 21.8136 22.2946 21.0097 23.2112 20.7488C24.1291 20.4805 24.9538 20.9197 25.0669 21.4322Z" fill="#FFFCEE"/>
</g>
<path d="M69.687 60.9999H60.046C59.7807 60.9999 59.5262 60.8945 59.3386 60.7069C59.1509 60.5192 59.0455 60.2647 59.0455 59.9994V59.3308C59.0455 59.0655 59.1509 58.811 59.3386 58.6234C59.5262 58.4357 59.7807 58.3303 60.046 58.3303H69.687C69.9523 58.3303 70.2068 58.4357 70.3944 58.6234C70.5821 58.811 70.6875 59.0655 70.6875 59.3308V59.9994C70.6875 60.1308 70.6616 60.2609 70.6114 60.3823C70.5611 60.5037 70.4874 60.614 70.3945 60.7069C70.3016 60.7998 70.1913 60.8735 70.0699 60.9238C69.9485 60.9741 69.8184 60.9999 69.687 60.9999Z" fill="#FDB740"/>
<path opacity="0.88" d="M69.687 58.6055H60.046C59.9146 58.6055 59.7845 58.6313 59.6632 58.6816C59.5418 58.7319 59.4315 58.8056 59.3386 58.8985C59.2457 58.9914 59.172 59.1017 59.1217 59.2231C59.0714 59.3445 59.0455 59.4746 59.0455 59.606V59.996C59.0455 59.7307 59.1509 59.4762 59.3386 59.2886C59.5262 59.1009 59.7807 58.9955 60.046 58.9955H69.687C69.9523 58.9955 70.2068 59.1009 70.3944 59.2886C70.5821 59.4762 70.6875 59.7307 70.6875 59.996V59.606C70.6875 59.4746 70.6616 59.3445 70.6114 59.2231C70.5611 59.1017 70.4874 58.9914 70.3945 58.8985C70.3016 58.8056 70.1913 58.7319 70.0699 58.6816C69.9485 58.6313 69.8184 58.6055 69.687 58.6055Z" fill="#FFF3C0"/>
<path d="M69.687 60.6987H60.046C59.7807 60.6987 59.5262 60.5932 59.3386 60.4056C59.1509 60.218 59.0455 59.9635 59.0455 59.6981V59.3081C59.0455 59.5735 59.1509 59.8279 59.3386 60.0156C59.5262 60.2032 59.7807 60.3086 60.046 60.3086H69.687C69.9523 60.3086 70.2068 60.2032 70.3944 60.0156C70.5821 59.8279 70.6875 59.5735 70.6875 59.3081V59.6981C70.6875 59.8295 70.6616 59.9596 70.6114 60.081C70.5611 60.2024 70.4874 60.3127 70.3945 60.4057C70.3016 60.4986 70.1913 60.5723 70.0699 60.6225C69.9485 60.6728 69.8184 60.6987 69.687 60.6987Z" fill="#F29E25"/>
<path d="M69.687 60.9999H60.046C59.7807 60.9999 59.5262 60.8945 59.3386 60.7069C59.1509 60.5192 59.0455 60.2647 59.0455 59.9994V59.3308C59.0455 59.0655 59.1509 58.811 59.3386 58.6234C59.5262 58.4357 59.7807 58.3303 60.046 58.3303H69.687C69.9523 58.3303 70.2068 58.4357 70.3944 58.6234C70.5821 58.811 70.6875 59.0655 70.6875 59.3308V59.9994C70.6875 60.1308 70.6616 60.2609 70.6114 60.3823C70.5611 60.5037 70.4874 60.614 70.3945 60.7069C70.3016 60.7998 70.1913 60.8735 70.0699 60.9238C69.9485 60.9741 69.8184 60.9999 69.687 60.9999Z" stroke="#474747" stroke-width="0.826071" stroke-miterlimit="10" stroke-linecap="round" stroke-linejoin="round"/>
<path d="M71.2915 58.3302H61.6505C61.3852 58.3302 61.1307 58.2248 60.9431 58.0372C60.7554 57.8496 60.65 57.5951 60.65 57.3297V56.6612C60.65 56.5298 60.6759 56.3997 60.7262 56.2783C60.7765 56.1569 60.8502 56.0466 60.9431 55.9537C61.036 55.8608 61.1463 55.7871 61.2677 55.7368C61.389 55.6865 61.5191 55.6606 61.6505 55.6606H71.2915C71.4229 55.6606 71.553 55.6865 71.6743 55.7368C71.7957 55.7871 71.906 55.8608 71.9989 55.9537C72.0918 56.0466 72.1655 56.1569 72.2158 56.2783C72.2661 56.3997 72.292 56.5298 72.292 56.6612V57.3297C72.292 57.5951 72.1866 57.8496 71.9989 58.0372C71.8113 58.2248 71.5568 58.3302 71.2915 58.3302Z" fill="#FDB740"/>
<path opacity="0.88" d="M71.2915 55.936H61.6505C61.3852 55.936 61.1307 56.0414 60.9431 56.2291C60.7554 56.4167 60.65 56.6712 60.65 56.9365V57.3266C60.65 57.0612 60.7554 56.8068 60.9431 56.6191C61.1307 56.4315 61.3852 56.3261 61.6505 56.3261H71.2915C71.5568 56.3261 71.8113 56.4315 71.9989 56.6191C72.1866 56.8068 72.292 57.0612 72.292 57.3266V56.9365C72.2919 56.6712 72.1865 56.4167 71.9989 56.2291C71.8113 56.0415 71.5568 55.9361 71.2915 55.936Z" fill="#FFF3C0"/>
<path d="M71.2915 58.0287H61.6505C61.5191 58.0287 61.389 58.0029 61.2677 57.9526C61.1463 57.9023 61.036 57.8286 60.9431 57.7357C60.8502 57.6428 60.7765 57.5325 60.7262 57.4111C60.6759 57.2897 60.65 57.1596 60.65 57.0282V56.6382C60.65 56.9035 60.7554 57.158 60.9431 57.3457C61.1307 57.5333 61.3852 57.6387 61.6505 57.6387H71.2915C71.5568 57.6387 71.8113 57.5333 71.9989 57.3457C72.1866 57.158 72.292 56.9035 72.292 56.6382V57.0282C72.292 57.1596 72.2661 57.2897 72.2158 57.4111C72.1655 57.5325 72.0918 57.6428 71.9989 57.7357C71.906 57.8286 71.7957 57.9023 71.6743 57.9526C71.553 58.0029 71.4229 58.0287 71.2915 58.0287Z" fill="#F29E25"/>
<path d="M71.2915 58.3302H61.6505C61.3852 58.3302 61.1307 58.2248 60.9431 58.0372C60.7554 57.8496 60.65 57.5951 60.65 57.3297V56.6612C60.65 56.5298 60.6759 56.3997 60.7262 56.2783C60.7765 56.1569 60.8502 56.0466 60.9431 55.9537C61.036 55.8608 61.1463 55.7871 61.2677 55.7368C61.389 55.6865 61.5191 55.6606 61.6505 55.6606H71.2915C71.4229 55.6606 71.553 55.6865 71.6743 55.7368C71.7957 55.7871 71.906 55.8608 71.9989 55.9537C72.0918 56.0466 72.1655 56.1569 72.2158 56.2783C72.2661 56.3997 72.292 56.5298 72.292 56.6612V57.3297C72.292 57.5951 72.1866 57.8496 71.9989 58.0372C71.8113 58.2248 71.5568 58.3302 71.2915 58.3302Z" stroke="#474747" stroke-width="0.826071" stroke-miterlimit="10" stroke-linecap="round" stroke-linejoin="round"/>
<path d="M69.687 55.6606H60.046C59.9146 55.6606 59.7845 55.6347 59.6632 55.5844C59.5418 55.5341 59.4315 55.4604 59.3386 55.3675C59.2457 55.2746 59.172 55.1643 59.1217 55.0429C59.0714 54.9215 59.0455 54.7914 59.0455 54.66V53.9915C59.0455 53.7261 59.1509 53.4716 59.3386 53.284C59.5262 53.0964 59.7807 52.991 60.046 52.991H69.687C69.9523 52.991 70.2068 53.0964 70.3944 53.284C70.5821 53.4716 70.6875 53.7261 70.6875 53.9915V54.66C70.6875 54.7914 70.6616 54.9215 70.6114 55.0429C70.5611 55.1643 70.4874 55.2746 70.3945 55.3676C70.3016 55.4605 70.1913 55.5342 70.0699 55.5844C69.9485 55.6347 69.8184 55.6606 69.687 55.6606Z" fill="#FDB740"/>
<path opacity="0.88" d="M69.687 53.2666H60.046C59.7807 53.2666 59.5262 53.372 59.3386 53.5596C59.1509 53.7473 59.0455 54.0018 59.0455 54.2671V54.6572C59.0455 54.5258 59.0714 54.3957 59.1217 54.2743C59.172 54.1529 59.2457 54.0426 59.3386 53.9497C59.4315 53.8568 59.5418 53.7831 59.6632 53.7328C59.7845 53.6825 59.9146 53.6566 60.046 53.6566H69.687C69.8184 53.6566 69.9485 53.6825 70.0699 53.7328C70.1912 53.7831 70.3015 53.8568 70.3944 53.9497C70.4874 54.0426 70.561 54.1529 70.6113 54.2743C70.6616 54.3957 70.6875 54.5258 70.6875 54.6572V54.2671C70.6875 54.1357 70.6616 54.0056 70.6114 53.8842C70.5611 53.7628 70.4874 53.6525 70.3945 53.5596C70.3016 53.4667 70.1913 53.393 70.0699 53.3427C69.9485 53.2925 69.8184 53.2666 69.687 53.2666Z" fill="#FFF3C0"/>
<path d="M69.687 55.3593H60.046C59.7807 55.3593 59.5262 55.2539 59.3386 55.0663C59.1509 54.8786 59.0455 54.6241 59.0455 54.3588V53.9688C59.0455 54.1001 59.0714 54.2302 59.1217 54.3516C59.172 54.473 59.2457 54.5833 59.3386 54.6762C59.4315 54.7691 59.5418 54.8428 59.6632 54.8931C59.7845 54.9434 59.9146 54.9693 60.046 54.9693H69.687C69.8184 54.9693 69.9485 54.9434 70.0699 54.8931C70.1912 54.8428 70.3015 54.7691 70.3944 54.6762C70.4874 54.5833 70.561 54.473 70.6113 54.3516C70.6616 54.2302 70.6875 54.1001 70.6875 53.9688V54.3588C70.6875 54.4902 70.6616 54.6203 70.6114 54.7417C70.5611 54.8631 70.4874 54.9734 70.3945 55.0663C70.3016 55.1592 70.1913 55.2329 70.0699 55.2832C69.9485 55.3335 69.8184 55.3593 69.687 55.3593Z" fill="#F29E25"/>
<path d="M69.687 55.6606H60.046C59.9146 55.6606 59.7845 55.6347 59.6632 55.5844C59.5418 55.5341 59.4315 55.4604 59.3386 55.3675C59.2457 55.2746 59.172 55.1643 59.1217 55.0429C59.0714 54.9215 59.0455 54.7914 59.0455 54.66V53.9915C59.0455 53.7261 59.1509 53.4716 59.3386 53.284C59.5262 53.0964 59.7807 52.991 60.046 52.991H69.687C69.9523 52.991 70.2068 53.0964 70.3944 53.284C70.5821 53.4716 70.6875 53.7261 70.6875 53.9915V54.66C70.6875 54.7914 70.6616 54.9215 70.6114 55.0429C70.5611 55.1643 70.4874 55.2746 70.3945 55.3676C70.3016 55.4605 70.1913 55.5342 70.0699 55.5844C69.9485 55.6347 69.8184 55.6606 69.687 55.6606Z" stroke="#474747" stroke-width="0.826071" stroke-miterlimit="10" stroke-linecap="round" stroke-linejoin="round"/>
<path d="M58.7758 53.6418L52.19 60.6826C52.1002 60.7786 51.9925 60.8559 51.8728 60.9103C51.7532 60.9646 51.624 60.9948 51.4927 60.9992C51.3613 61.0036 51.2304 60.982 51.1074 60.9358C50.9844 60.8896 50.8717 60.8196 50.7758 60.7299L50.2875 60.2732C50.1916 60.1834 50.1142 60.0756 50.0599 59.956C50.0056 59.8363 49.9754 59.7072 49.971 59.5758C49.9666 59.4445 49.9882 59.3136 50.0344 59.1906C50.0806 59.0676 50.1506 58.9549 50.2403 58.8589L56.8262 51.8181C56.9159 51.7221 57.0237 51.6448 57.1434 51.5904C57.263 51.5361 57.3922 51.5059 57.5235 51.5015C57.6548 51.4971 57.7857 51.5187 57.9087 51.5649C58.0318 51.6111 58.1445 51.6811 58.2404 51.7708L58.7286 52.2275C58.9224 52.4088 59.0362 52.6597 59.0451 52.9249C59.0539 53.1901 58.9571 53.448 58.7758 53.6418Z" fill="#FDB740"/>
<path opacity="0.88" d="M57.0272 52.0062L50.4413 59.0471C50.2601 59.2409 50.1632 59.4988 50.1721 59.764C50.1809 60.0292 50.2948 60.2801 50.4885 60.4614L50.7734 60.7278C50.6774 60.638 50.6001 60.5302 50.5458 60.4106C50.4915 60.2909 50.4613 60.1618 50.4569 60.0304C50.4525 59.8991 50.474 59.7682 50.5202 59.6452C50.5664 59.5222 50.6364 59.4095 50.7262 59.3135L57.312 52.2726C57.4933 52.0789 57.7441 51.965 58.0094 51.9562C58.2746 51.9473 58.5324 52.0442 58.7263 52.2254L58.4414 51.959C58.2476 51.7778 57.9897 51.6809 57.7245 51.6898C57.4593 51.6986 57.2085 51.8125 57.0272 52.0062Z" fill="#FFF3C0"/>
<path d="M58.5556 53.4363L51.9697 60.4771C51.88 60.5731 51.7722 60.6504 51.6525 60.7048C51.5329 60.7591 51.4037 60.7893 51.2724 60.7937C51.1411 60.7981 51.0102 60.7765 50.8871 60.7303C50.7641 60.6841 50.6514 60.6141 50.5555 60.5244L50.2706 60.258C50.4644 60.4392 50.7223 60.5361 50.9875 60.5272C51.2527 60.5184 51.5036 60.4045 51.6849 60.2107L58.2707 53.1698C58.452 52.976 58.5488 52.7182 58.54 52.4529C58.5311 52.1877 58.4173 51.9369 58.2235 51.7556L58.5083 52.022C58.7021 52.2033 58.816 52.4541 58.8248 52.7194C58.8337 52.9846 58.7368 53.2424 58.5556 53.4363Z" fill="#F29E25"/>
<path d="M58.7758 53.6418L52.19 60.6826C52.1002 60.7786 51.9925 60.8559 51.8728 60.9103C51.7532 60.9646 51.624 60.9948 51.4927 60.9992C51.3613 61.0036 51.2304 60.982 51.1074 60.9358C50.9844 60.8896 50.8717 60.8196 50.7758 60.7299L50.2875 60.2732C50.1916 60.1834 50.1142 60.0756 50.0599 59.956C50.0056 59.8363 49.9754 59.7072 49.971 59.5758C49.9666 59.4445 49.9882 59.3136 50.0344 59.1906C50.0806 59.0676 50.1506 58.9549 50.2403 58.8589L56.8262 51.8181C56.9159 51.7221 57.0237 51.6448 57.1434 51.5904C57.263 51.5361 57.3922 51.5059 57.5235 51.5015C57.6548 51.4971 57.7857 51.5187 57.9087 51.5649C58.0318 51.6111 58.1445 51.6811 58.2404 51.7708L58.7286 52.2275C58.9224 52.4088 59.0362 52.6597 59.0451 52.9249C59.0539 53.1901 58.9571 53.448 58.7758 53.6418Z" stroke="#474747" stroke-width="0.826071" stroke-miterlimit="10" stroke-linecap="round" stroke-linejoin="round"/>
</svg>
