<svg width="77" height="20" viewBox="0 0 77 20" fill="none" xmlns="http://www.w3.org/2000/svg">
<path d="M73.2903 4.26287L71.4753 15.6381C71.4685 15.6799 71.4709 15.7227 71.4825 15.7634C71.494 15.8041 71.5143 15.8418 71.5419 15.8739C71.5696 15.906 71.604 15.9316 71.6426 15.9491C71.6813 15.9665 71.7233 15.9753 71.7657 15.9748H73.9136C73.9894 15.9754 74.0629 15.949 74.1209 15.9002C74.1788 15.8515 74.2173 15.7836 74.2294 15.709L76.0444 4.33372C76.0512 4.29195 76.0487 4.2492 76.0372 4.20847C76.0257 4.16774 76.0054 4.13002 75.9777 4.09794C75.95 4.06587 75.9157 4.04022 75.877 4.02279C75.8384 4.00537 75.7963 3.99659 75.7539 3.99707H73.606C73.53 3.99557 73.456 4.02172 73.3979 4.07063C73.3398 4.11954 73.3016 4.18787 73.2903 4.26287ZM70.9967 7.58244H68.9587C68.883 7.5817 68.8096 7.60807 68.7517 7.65677C68.6938 7.70546 68.6554 7.77324 68.6434 7.84779L68.576 8.26658C68.576 8.26658 66.9931 6.55444 64.1906 7.71151C62.5828 8.37398 61.8111 9.74269 61.4826 10.7454C61.4826 10.7454 60.4403 13.7929 62.7977 15.4703C62.7977 15.4703 64.9836 17.0836 67.445 15.371L67.4025 15.6381C67.3927 15.7009 67.4037 15.7651 67.4339 15.8211C67.4641 15.877 67.5119 15.9215 67.5699 15.9477C67.6083 15.9658 67.6504 15.9748 67.6929 15.9748H69.7323C69.8083 15.9763 69.8822 15.9501 69.9404 15.9012C69.9985 15.8523 70.0367 15.784 70.048 15.709L71.2885 7.91909C71.2954 7.87737 71.293 7.83463 71.2813 7.79397C71.2696 7.7533 71.2491 7.71573 71.2211 7.68398C71.1934 7.65163 71.159 7.62572 71.1202 7.6081C71.0815 7.59047 71.0393 7.58201 70.9967 7.58244ZM67.9978 11.8876C67.9183 12.4319 67.6425 12.9285 67.222 13.2843C66.7997 13.6414 66.2623 13.8342 65.7088 13.8272C65.4917 13.8297 65.2756 13.7983 65.0682 13.7342C64.1883 13.4544 63.6862 12.6178 63.8305 11.7107C63.9106 11.1667 64.1868 10.6705 64.6072 10.3149C65.0291 9.95761 65.5661 9.7642 66.1195 9.77022C66.3367 9.76798 66.5528 9.79965 66.7601 9.86409C67.6454 10.1421 68.1453 10.9801 68.0001 11.8881H67.9978V11.8876ZM57.1153 12.1029C58.2205 12.1029 59.2895 11.7112 60.1291 10.999C60.967 10.2893 61.5217 9.30326 61.6925 8.22009C62.0495 5.96688 60.2721 4.00023 57.7523 4.00023H53.6931C53.6173 3.9995 53.5438 4.02594 53.4859 4.07472C53.4281 4.1235 53.3897 4.19139 53.3778 4.26603L51.5623 15.6413C51.5525 15.7041 51.5635 15.7683 51.5938 15.8242C51.624 15.8801 51.6717 15.9246 51.7297 15.9509C51.7686 15.9689 51.8102 15.9779 51.8528 15.9779H54.002C54.0778 15.9787 54.1513 15.9522 54.2092 15.9035C54.267 15.8547 54.3054 15.7868 54.3174 15.7121L54.8503 12.3718C54.8615 12.2967 54.8997 12.2283 54.9578 12.1793C55.0159 12.1303 55.0899 12.1041 55.166 12.1056L57.1153 12.1029ZM58.9131 8.11766C58.7806 8.95071 58.13 9.56399 56.8855 9.56399H55.2945L55.7776 6.53458H57.3402C58.6267 6.53684 59.0456 7.28821 58.9131 8.11991V8.11766Z" fill="#0070E0"/>
<path d="M49.1138 7.7756L46.6556 11.8844L45.4079 7.80583C45.3884 7.74074 45.3482 7.68375 45.2933 7.64346C45.2385 7.60317 45.172 7.58175 45.1039 7.58245H42.8854C42.828 7.58168 42.7723 7.60162 42.7285 7.63861C42.6847 7.67559 42.6558 7.72713 42.647 7.78372C42.6416 7.82124 42.6455 7.85951 42.6583 7.89518L44.894 14.7654L42.8719 18.0028C42.8547 18.0295 42.8432 18.0593 42.838 18.0906C42.8328 18.1219 42.834 18.1538 42.8416 18.1846C42.8493 18.2153 42.8631 18.2442 42.8823 18.2695C42.9015 18.2947 42.9256 18.3158 42.9533 18.3314C42.9903 18.3526 43.0323 18.3635 43.075 18.3629H45.4645C45.5327 18.3632 45.5998 18.3459 45.6593 18.3127C45.7188 18.2795 45.7687 18.2315 45.8042 18.1734L52.0489 7.94437C52.0715 7.90876 52.0839 7.86764 52.0848 7.82548C52.0857 7.78332 52.075 7.74172 52.0539 7.7052C52.0328 7.66855 52.0022 7.63821 51.9654 7.61734C51.9285 7.59646 51.8868 7.58582 51.8444 7.58651H49.4558C49.3873 7.58588 49.3198 7.60297 49.2599 7.63611C49.1999 7.66924 49.1496 7.7173 49.1138 7.7756ZM41.6278 7.58245H39.588C39.5121 7.58173 39.4385 7.60821 39.3806 7.65708C39.3226 7.70594 39.2842 7.77395 39.2723 7.8487L39.2062 8.26703C39.2062 8.26703 37.622 6.5549 34.8195 7.71197C33.2121 8.37444 32.4399 9.74315 32.1129 10.7459C32.1129 10.7459 31.0697 13.7933 33.4266 15.4707C33.4266 15.4707 35.6129 17.084 38.0743 15.3714L38.0318 15.6386C38.0218 15.7014 38.0328 15.7657 38.063 15.8216C38.0933 15.8776 38.1411 15.922 38.1992 15.9482C38.2377 15.9662 38.2797 15.9753 38.3223 15.9753H40.3616C40.4373 15.9758 40.5107 15.9493 40.5685 15.9005C40.6264 15.8518 40.6648 15.784 40.6769 15.7094L41.9178 7.91955C41.9279 7.85671 41.917 7.7923 41.8867 7.73626C41.8565 7.68023 41.8086 7.63569 41.7504 7.60953C41.7118 7.59181 41.6703 7.58257 41.6278 7.58245ZM38.6285 11.8885C38.5482 12.4321 38.2723 12.928 37.8522 13.2834C37.4302 13.6405 36.8933 13.8337 36.3399 13.8276C36.1231 13.83 35.9073 13.7987 35.7002 13.7347C34.8208 13.4549 34.3191 12.6182 34.4634 11.7107C34.5438 11.1655 34.821 10.6684 35.2429 10.3127C35.6664 9.95539 36.2051 9.7629 36.7597 9.77068C36.9769 9.76842 37.1936 9.80001 37.4008 9.86454C38.277 10.1425 38.776 10.9801 38.6312 11.8885H38.6285ZM27.7465 12.1033C28.8498 12.1027 29.917 11.711 30.7575 10.9981C31.5946 10.2885 32.1487 9.30273 32.3191 8.2201C32.6765 5.96734 30.8987 4.00069 28.3798 4.00069H24.3201C24.2444 3.99993 24.1709 4.02629 24.1129 4.07497C24.055 4.12365 24.0165 4.19144 24.0044 4.26604L22.1948 15.6381C22.1847 15.701 22.1956 15.7654 22.2259 15.8214C22.2561 15.8775 22.3041 15.922 22.3622 15.9482C22.4007 15.9658 22.4427 15.9753 22.4853 15.9753H24.6332C24.7091 15.976 24.7827 15.9495 24.8406 15.9006C24.8986 15.8518 24.937 15.7838 24.9489 15.709L25.4809 12.3687C25.4922 12.2937 25.5305 12.2253 25.5886 12.1764C25.6467 12.1275 25.7207 12.1014 25.7967 12.1029L27.7465 12.1033ZM29.5442 8.11766C29.4117 8.95072 28.7616 9.564 27.5171 9.564H25.9261L26.4083 6.53459H27.9708C29.2579 6.53685 29.6763 7.28867 29.5442 8.11992V8.11766Z" fill="#003087"/>
<path d="M13.8605 4.58479C13.9089 2.073 11.832 0.146057 8.9761 0.146057H3.06889C2.93123 0.145993 2.79808 0.194966 2.69341 0.284156C2.58874 0.373345 2.51944 0.496888 2.49798 0.632531L0.13112 15.386C0.120531 15.4529 0.124591 15.5212 0.143023 15.5864C0.161455 15.6515 0.193819 15.7119 0.237888 15.7634C0.281957 15.8148 0.336684 15.8562 0.398301 15.8845C0.459917 15.9129 0.52696 15.9275 0.594812 15.9276H4.09444L3.54751 19.3437C3.53692 19.4106 3.54098 19.4789 3.55941 19.5441C3.57784 19.6092 3.61021 19.6696 3.65428 19.7211C3.69835 19.7725 3.75307 19.8139 3.81469 19.8422C3.87631 19.8705 3.94335 19.8852 4.0112 19.8852H6.86211C6.99964 19.8852 7.12223 19.8361 7.22719 19.7472C7.33123 19.6578 7.34842 19.5346 7.37014 19.3988L8.20705 14.4871C8.22831 14.3517 8.29752 14.1757 8.40202 14.0864C8.50652 13.997 8.5979 13.9483 8.73588 13.9483H10.4803C13.2773 13.9483 15.6501 11.9649 16.0839 9.20674C16.3911 7.24911 15.5497 5.46793 13.8605 4.58479Z" fill="#001C64"/>
<path d="M4.85169 10.4867L3.97995 16.0004L3.43256 19.459C3.42204 19.5258 3.42617 19.5942 3.44466 19.6593C3.46315 19.7244 3.49556 19.7848 3.53967 19.8362C3.58379 19.8876 3.63854 19.9289 3.70018 19.9572C3.76181 19.9855 3.82886 20.0001 3.89671 20.0001H6.9141C7.05162 20 7.18461 19.951 7.28911 19.8618C7.39361 19.7726 7.46276 19.6491 7.4841 19.5136L8.27938 14.4868C8.30082 14.3513 8.37006 14.2278 8.47464 14.1386C8.57921 14.0494 8.71226 14.0004 8.84984 14.0004H10.6259C13.423 14.0004 15.7957 11.9651 16.23 9.20694C16.5376 7.24931 15.5496 5.46768 13.8604 4.58453C13.8559 4.79302 13.8378 5.00106 13.8057 5.20729C13.3719 7.96458 10.9982 10.0003 8.20203 10.0003H5.42214C5.28452 10.0004 5.15146 10.0495 5.0469 10.1388C4.94233 10.2281 4.87311 10.3511 4.85169 10.4867Z" fill="#0070E0"/>
<path d="M3.97956 16.0004H0.469071C0.401233 16.0004 0.334203 15.9857 0.272604 15.9573C0.211005 15.929 0.156302 15.8877 0.112267 15.8362C0.0682318 15.7847 0.0359124 15.7243 0.0175373 15.6592C-0.000837855 15.594 -0.00483157 15.5257 0.00583151 15.4589L2.37269 0.486474C2.39413 0.350908 2.46337 0.227425 2.56795 0.138245C2.67252 0.0490648 2.80557 4.29067e-05 2.94315 0H8.97612C11.832 0 13.9089 2.07315 13.8605 4.5845C13.1498 4.21265 12.3147 4.0001 11.4 4.0001H6.3704C6.23274 4.00003 6.09958 4.049 5.99491 4.13819C5.89024 4.22738 5.82094 4.35093 5.79949 4.48657L4.8522 10.4867L3.9791 16.0004H3.97956Z" fill="#003087"/>
</svg>
