<svg width="16" height="16" viewBox="0 0 16 16" fill="none" xmlns="http://www.w3.org/2000/svg">
<path d="M13.94 7.41337C13.94 10.6734 11.5733 13.7267 8.34001 14.62C8.12001 14.68 7.87999 14.68 7.65999 14.62C4.42666 13.7267 2.06 10.6734 2.06 7.41337V4.48669C2.06 3.94002 2.47334 3.32002 2.98667 3.11336L6.69999 1.59338C7.53332 1.25338 8.47333 1.25338 9.30666 1.59338L13.02 3.11336C13.5267 3.32002 13.9467 3.94002 13.9467 4.48669L13.94 7.41337Z" stroke="#6E7191" stroke-linecap="round" stroke-linejoin="round"/>
<path d="M8.00001 8.33341C8.73638 8.33341 9.33334 7.73646 9.33334 7.00008C9.33334 6.2637 8.73638 5.66675 8.00001 5.66675C7.26363 5.66675 6.66667 6.2637 6.66667 7.00008C6.66667 7.73646 7.26363 8.33341 8.00001 8.33341Z" stroke="#6E7191" stroke-miterlimit="10" stroke-linecap="round" stroke-linejoin="round"/>
<path d="M8 8.3335V10.3335" stroke="#6E7191" stroke-miterlimit="10" stroke-linecap="round" stroke-linejoin="round"/>
</svg>
