<svg width="100" height="100" viewBox="0 0 100 100" fill="none" xmlns="http://www.w3.org/2000/svg">
<circle cx="50" cy="50" r="49" stroke="url(#paint0_linear_1219_2484)" stroke-linecap="round" stroke-dasharray="5 5"/>
<circle cx="50" cy="50" r="45" fill="white"/>
<g clip-path="url(#clip0_1219_2484)">
<path d="M94.9079 35.2125H5.09207V94.9014H94.9079V35.2125Z" fill="#FF7E84"/>
<path d="M5.28238 48.9952C5.28238 48.9952 24.8657 27.0963 44.6876 32.6207C64.5095 38.145 83.8593 53.1183 94.8889 54.3213" stroke="white" stroke-miterlimit="10"/>
<path d="M26.8103 25.1978C26.8103 25.1978 18.6941 31.6871 19.6016 54.3214C20.5092 76.9557 14.6424 105.356 14.6424 105.356" stroke="white" stroke-miterlimit="10"/>
<path d="M5.07309 105.93C5.07309 105.93 38.1248 66.5481 61.5646 62.594C85.0044 58.64 94.8889 24.7312 94.8889 24.7312" stroke="white" stroke-miterlimit="10"/>
<path d="M53.1497 24.1843C53.1497 24.1843 65.7151 54.7218 70.8389 70.6958C75.9626 86.6697 94.3477 87.8753 94.3477 87.8753" stroke="white" stroke-miterlimit="10"/>
<path d="M94.9269 65.3303C94.9269 65.3303 21.6643 84.1139 5.11111 69.1164" stroke="white" stroke-miterlimit="10"/>
<path d="M40.2097 58.707C44.3494 58.707 47.7052 55.3512 47.7052 51.2115C47.7052 47.0719 44.3494 43.7161 40.2097 43.7161C36.0701 43.7161 32.7143 47.0719 32.7143 51.2115C32.7143 55.3512 36.0701 58.707 40.2097 58.707Z" fill="#350313"/>
<path d="M87.1679 94.9013H12.7672C13.0853 93.5158 13.3923 92.2055 13.6881 90.9706C15.8565 81.9162 17.3823 76.9871 17.3823 76.9871C17.6286 75.4208 18.2036 73.9243 19.0693 72.596C20.75 70.0446 22.9561 69.1216 22.9561 69.1216L28.2305 67.4785L38.6642 64.2323C39.3142 64.0299 39.9225 63.7123 40.46 63.2946C40.5605 63.2151 40.6589 63.1355 40.753 63.0497C41.2541 62.6031 41.6715 62.0709 41.9858 61.4778C42.2159 61.0489 42.3884 60.5915 42.4987 60.1174V60.1153C42.5111 60.063 42.5216 60.0106 42.5342 59.9562C42.5572 59.8516 42.576 59.7448 42.5907 59.636C42.5991 59.5816 42.6074 59.5272 42.6117 59.4727C42.6305 59.32 42.6431 59.1651 42.6472 59.0102C42.6493 58.9453 42.6514 58.8783 42.6514 58.8134V51.222H56.8463V58.8134C56.8473 59.6591 57.0368 60.4939 57.401 61.2572C57.7653 62.0204 58.2951 62.6928 58.9519 63.2255C58.9644 63.236 58.977 63.2465 58.9916 63.2569C59.5399 63.6933 60.1644 64.024 60.8335 64.2323L72.7533 67.9432L76.5417 69.1216C77.5743 69.6125 78.5019 70.2992 79.273 71.1434C80.7527 72.7174 81.659 74.62 82.1279 75.8172C82.1425 75.8569 82.1593 75.8967 82.1739 75.9344C82.1928 75.9846 82.2116 76.0327 82.2284 76.0788C82.4355 76.6376 82.5298 76.9872 82.5298 76.9872H82.5549C82.5549 76.9872 82.5695 77.0353 82.5988 77.1316C82.8541 77.9709 84.2 82.4897 86.0523 90.1586C86.406 91.6258 86.7779 93.2067 87.1679 94.9013Z" fill="#F8B997"/>
<path d="M48.0366 59.2976C53.0992 58.4152 56.8464 52.5498 56.8464 52.5498C56.8464 52.5498 51.8256 52.1364 48.6856 51.2216H42.6515V58.8141C42.6509 59.2523 42.5996 59.689 42.4985 60.1153L42.4984 60.1233C42.4984 60.1233 42.9739 60.1801 48.0366 59.2976Z" fill="#E59876"/>
<path d="M87.1888 94.9013H12.8551C13.1691 93.5345 13.4719 92.2424 13.7635 91.025V91.0229C15.9214 82.0271 17.4367 77.1315 17.4367 77.1315C17.6923 75.5055 18.3025 73.9556 19.2242 72.5917C20.8923 70.1534 23.0105 69.2659 23.0105 69.2659L28.2305 67.4785L40.46 63.2945L40.707 63.2108V80.0973H59.0084L58.9519 63.2255L59.0084 63.2108L72.7533 67.9431L76.5982 69.2659C77.5804 69.7319 78.4676 70.3763 79.2144 71.1664C80.7026 72.7006 81.6298 74.5843 82.1279 75.8171C82.1425 75.8569 82.1593 75.8966 82.1739 75.9343C82.1928 75.9845 82.2116 76.0327 82.2284 76.0787C82.3895 76.4952 82.4921 76.8134 82.5445 76.9871C82.5717 77.0813 82.5863 77.1315 82.5863 77.1315H82.6093C82.6093 77.1315 84.0262 81.7111 86.0711 90.1543C86.427 91.6215 86.7995 93.2038 87.1888 94.9013Z" fill="#E8E9EA"/>
<path d="M25.1579 92.3499L25.1286 94.9012H25.003L25.1579 92.3499Z" fill="#D2D3D5"/>
<path d="M74.4486 94.9012H74.323L74.2937 92.3499L74.4486 94.9012Z" fill="#D2D3D5"/>
<path d="M60.6915 88.1964H70.5179C70.5179 88.1964 67.5858 92.2837 60.6915 88.1964Z" fill="#D2D3D5"/>
<path d="M59.0084 80.0974H40.707V94.9014H59.0084V80.0974Z" fill="#577FFF"/>
<path d="M61.4225 36.6912C61.1069 36.6297 60.7818 36.6372 60.4694 36.7133C59.3573 29.0355 54.743 23.2777 49.2172 23.2777C43.6759 23.2777 39.0505 29.0671 37.9549 36.777C37.5816 36.6477 37.1811 36.6181 36.7929 36.6912C35.0818 37.0314 34.1043 39.3673 34.6095 41.9085C35.097 44.3608 36.7871 46.1022 38.4425 45.9157C40.0673 51.934 44.1532 56.1769 48.278 57.2499C48.5874 57.308 48.903 57.3267 49.2172 57.3057C49.4667 57.3262 49.7179 57.3144 49.9644 57.2704C54.5786 56.0357 58.5111 51.9262 60.0417 45.9296C61.6076 45.9112 63.1447 44.228 63.6059 41.9085C64.1111 39.3673 63.1335 37.0314 61.4225 36.6912Z" fill="#F8B997"/>
<path d="M51.7218 44.7015C51.0114 45.4215 50.0722 45.8712 49.066 45.9734C49.0972 45.9786 49.1285 45.9812 49.1598 45.9838H48.9721C49.0034 45.9812 49.0347 45.9786 49.0659 45.9734C48.0761 45.8746 47.1504 45.4385 46.444 44.738L51.7218 44.7015Z" fill="#E59876"/>
<path d="M46.7776 35.6629C46.2131 35.8217 45.6326 35.9164 45.047 35.9452C44.7606 35.9636 44.4753 35.9693 44.1903 35.9672L43.7738 35.959C43.6473 35.9551 43.5208 35.9562 43.3945 35.9625C42.8829 35.9831 42.375 36.0585 41.8794 36.1875C41.752 36.2192 41.6254 36.257 41.4965 36.2955C41.362 36.3388 41.2212 36.382 41.0817 36.4211C40.7958 36.5024 40.5044 36.5626 40.2097 36.6012C40.4034 36.3757 40.6134 36.1649 40.838 35.9703C40.9486 35.8746 41.0572 35.7816 41.1735 35.6912C41.2965 35.5964 41.4256 35.51 41.5601 35.4325C42.1081 35.1184 42.7245 34.9428 43.3558 34.921C43.5136 34.9187 43.6716 34.919 43.8288 34.9324C43.9905 34.948 44.1172 34.9628 44.2627 34.9834C44.5448 35.023 44.8263 35.0704 45.1069 35.1305C45.682 35.2447 46.2424 35.4233 46.7776 35.6629Z" fill="#38101B"/>
<path d="M51.516 35.6629C52.0512 35.4233 52.6116 35.2447 53.1868 35.1305C53.4673 35.0704 53.7489 35.023 54.0309 34.9834C54.1765 34.9628 54.3031 34.948 54.4649 34.9324C54.622 34.919 54.78 34.9187 54.9378 34.921C55.5691 34.9428 56.1855 35.1184 56.7336 35.4325C56.868 35.51 56.9971 35.5964 57.1201 35.6912C57.2364 35.7816 57.345 35.8746 57.4556 35.9703C57.6802 36.1649 57.8902 36.3758 58.0839 36.6012C57.7892 36.5626 57.4978 36.5024 57.212 36.4211C57.0725 36.382 56.9315 36.3388 56.797 36.2955C56.6683 36.257 56.5416 36.2192 56.4142 36.1875C55.9187 36.0585 55.4107 35.9831 54.8991 35.9625C54.7729 35.9564 54.6465 35.9553 54.5198 35.959L54.1032 35.9672C53.8184 35.9693 53.533 35.9636 53.2467 35.9452C52.661 35.9164 52.0805 35.8217 51.516 35.6629Z" fill="#38101B"/>
<path d="M62.7485 41.3064C62.9396 39.8108 62.6078 38.5362 62.0075 38.4595C61.4072 38.3828 60.7656 39.533 60.5745 41.0286C60.3834 42.5242 60.7151 43.7988 61.3154 43.8755C61.9158 43.9522 62.5574 42.802 62.7485 41.3064Z" fill="#E59876"/>
<path d="M37.0964 43.8755C37.6967 43.7988 38.0285 42.5243 37.8374 41.0287C37.6462 39.5331 37.0047 38.3829 36.4043 38.4596C35.804 38.5363 35.4723 39.8109 35.6634 41.3065C35.8545 42.802 36.4961 43.9523 37.0964 43.8755Z" fill="#E59876"/>
<path d="M37.9549 36.777C38.0565 37.5451 38.1143 38.3077 38.1595 39.0695C38.2095 39.8311 38.2384 40.5912 38.2695 41.3502L38.3461 43.6262C38.3761 44.3853 38.4022 45.142 38.4425 45.9157C38.1618 45.1933 37.9658 44.4408 37.8584 43.6733C37.7387 42.912 37.6665 42.1439 37.6422 41.3736C37.6124 40.6055 37.6222 39.8364 37.6714 39.0693C37.7107 38.2994 37.8055 37.5333 37.9549 36.777Z" fill="#E59876"/>
<path d="M60.5341 36.777C60.6836 37.5333 60.7783 38.2994 60.8176 39.0693C60.8668 39.8364 60.8766 40.6055 60.8468 41.3736C60.8225 42.1439 60.7503 42.9119 60.6306 43.6733C60.5232 44.4408 60.3272 45.1933 60.0466 45.9157C60.0868 45.142 60.113 44.3853 60.1429 43.6262L60.2196 41.3501C60.2506 40.5912 60.2795 39.8311 60.3295 39.0695C60.3747 38.3078 60.4325 37.5451 60.5341 36.777Z" fill="#E59876"/>
<path d="M56.7971 36.2955C56.9316 36.3387 57.0722 36.3822 57.2121 36.4209C57.498 36.5016 57.7893 36.5619 58.0838 36.6012C57.8896 36.3763 57.6797 36.1656 57.4555 35.9705C57.3451 35.8744 57.2363 35.7818 57.1201 35.6912C56.9971 35.5965 56.868 35.51 56.7336 35.4325C56.4469 35.2681 56.14 35.1419 55.8206 35.0571C55.8985 35.3832 55.9705 35.7298 56.038 36.1004C56.1632 36.1259 56.2886 36.1549 56.4142 36.1875C56.5417 36.2193 56.6683 36.257 56.7971 36.2955Z" fill="#350313"/>
<path d="M38.2793 42.4647C38.2793 42.4647 39.8674 22.623 54.004 26.6263C54.004 26.6263 60.7483 32.2062 60.3104 43.7782C60.3104 43.7782 60.6987 39.6814 61.2069 36.6598C61.2069 36.6598 62.5727 29.3289 59.9464 25.2502C57.9326 22.1229 54.5044 21.4971 54.1916 21.4971C54.1916 21.4971 49.1298 17.6793 43.3045 21.66C40.7969 23.4057 39.0269 26.0204 38.3377 28.9971C37.7557 31.5128 37.4724 34.0884 37.4934 36.6704L38.2793 42.4647Z" fill="#350313"/>
<path d="M54.1917 21.4972C54.3262 21.9173 54.4131 22.3512 54.4509 22.7907C54.4918 23.2179 54.5043 23.6473 54.4884 24.0761C54.4738 24.505 54.4302 24.9323 54.3581 25.3553C54.2886 25.7911 54.1698 26.2175 54.0041 26.6264C53.8685 26.2065 53.7812 25.7725 53.7438 25.3329C53.7027 24.9057 53.6905 24.4763 53.7073 24.0475C53.7227 23.6187 53.7666 23.1913 53.8386 22.7683C53.9083 22.3327 54.0268 21.9063 54.1917 21.4972Z" fill="#502E2C"/>
<path d="M54.7999 26.6263C54.7999 26.6263 57.5192 32.3159 58.2286 35.3477C58.938 38.3794 60.066 43.0836 58.5419 49.4286C57.0177 55.7737 60.3027 56.6841 60.3027 56.6841" stroke="#350313" stroke-miterlimit="10"/>
<path d="M45.6996 39.6064C45.4813 39.2942 45.211 39.0219 44.9004 38.8013C44.756 38.7074 44.6003 38.632 44.437 38.5771C44.3563 38.5533 44.2741 38.5353 44.191 38.5232L44.0664 38.5043L43.9385 38.5021C43.7631 38.4986 43.5876 38.5124 43.4149 38.5432C43.2421 38.5776 43.0733 38.6293 42.9109 38.6974C42.5662 38.8547 42.2603 39.0859 42.015 39.3745C42.1031 38.9541 42.3507 38.5842 42.7058 38.3425C42.8878 38.2189 43.088 38.1245 43.2991 38.0626C43.5108 38.0045 43.7298 37.977 43.9493 37.9811C44.1758 37.9842 44.3998 38.0297 44.6097 38.1151C44.815 38.2048 45.0022 38.3311 45.1623 38.4879C45.4626 38.7893 45.652 39.1835 45.6996 39.6064Z" fill="#38101B"/>
<path d="M55.8462 39.6064C55.628 39.2942 55.3576 39.0219 55.0471 38.8013C54.9026 38.7074 54.7469 38.632 54.5836 38.5771C54.503 38.5533 54.4208 38.5353 54.3376 38.5232L54.213 38.5043L54.0852 38.5021C53.9097 38.4986 53.7343 38.5124 53.5615 38.5432C53.3888 38.5777 53.22 38.6293 53.0576 38.6974C52.7129 38.8547 52.407 39.0858 52.1617 39.3745C52.2497 38.9541 52.4973 38.5842 52.8524 38.3425C53.0345 38.2189 53.2347 38.1245 53.4458 38.0626C53.6575 38.0045 53.8764 37.977 54.0959 37.9811C54.3225 37.9842 54.5465 38.0297 54.7563 38.1151C54.9616 38.2048 55.1489 38.3311 55.3089 38.4879C55.6093 38.7893 55.7987 39.1835 55.8462 39.6064Z" fill="#38101B"/>
<path d="M44.5926 48.6348C44.5926 48.6348 52.1234 47.8367 53.6227 48.3844C53.6227 48.3844 50.3371 50.7719 49.5485 50.6529C48.7599 50.5338 44.5926 48.6348 44.5926 48.6348Z" fill="#FDFFFF"/>
<path d="M44.5925 48.6348C44.5925 48.6348 46.8523 51.7505 49.5631 51.3811C52.2739 51.0118 53.6228 48.3844 53.6228 48.3844C52.2439 49.1353 50.7071 49.5494 49.1377 49.5929C47.5683 49.6364 46.0108 49.3081 44.5925 48.6348H44.5925Z" fill="#D7645D"/>
<path d="M44.5926 48.6347C44.5926 48.6347 47.5419 47.0762 53.6227 48.3843C53.6227 48.3843 49.6268 48.5627 44.5926 48.6347Z" fill="#A75844"/>
<path opacity="0.58" d="M55.8676 45.2745C57.4165 45.2745 58.6721 44.3248 58.6721 43.1534C58.6721 41.982 57.4165 41.0323 55.8676 41.0323C54.3188 41.0323 53.0631 41.982 53.0631 43.1534C53.0631 44.3248 54.3188 45.2745 55.8676 45.2745Z" fill="url(#paint1_radial_1219_2484)"/>
<path opacity="0.58" d="M42.2982 45.2745C43.847 45.2745 45.1027 44.3248 45.1027 43.1534C45.1027 41.982 43.847 41.0323 42.2982 41.0323C40.7493 41.0323 39.4937 41.982 39.4937 43.1534C39.4937 44.3248 40.7493 45.2745 42.2982 45.2745Z" fill="url(#paint2_radial_1219_2484)"/>
</g>
<defs>
<linearGradient id="paint0_linear_1219_2484" x1="50" y1="1" x2="50" y2="99" gradientUnits="userSpaceOnUse">
<stop stop-color="#FF016C"/>
<stop offset="1" stop-color="#FF7A00"/>
</linearGradient>
<radialGradient id="paint1_radial_1219_2484" cx="0" cy="0" r="1" gradientUnits="userSpaceOnUse" gradientTransform="translate(55.8676 43.1538) scale(2.14462 3.93909)">
<stop stop-color="#EC7765"/>
<stop offset="0.3315" stop-color="#EF8973"/>
<stop offset="0.99628" stop-color="#F8B997"/>
<stop offset="1" stop-color="#F8B997"/>
</radialGradient>
<radialGradient id="paint2_radial_1219_2484" cx="0" cy="0" r="1" gradientUnits="userSpaceOnUse" gradientTransform="translate(42.2982 43.1538) scale(2.14462 3.93909)">
<stop stop-color="#EC7765"/>
<stop offset="0.3315" stop-color="#EF8973"/>
<stop offset="0.99628" stop-color="#F8B997"/>
<stop offset="1" stop-color="#F8B997"/>
</radialGradient>
<clipPath id="clip0_1219_2484">
<rect x="5" y="5" width="90" height="90" rx="45" fill="white"/>
</clipPath>
</defs>
</svg>
