<svg width="24" height="24" viewBox="0 0 24 24" fill="none" xmlns="http://www.w3.org/2000/svg">
<path d="M21.3 10.84C21.69 10.84 22 10.53 22 10.14V9.20999C22 5.10999 20.75 3.85999 16.65 3.85999H7.35C3.25 3.85999 2 5.10999 2 9.20999V9.67999C2 10.07 2.31 10.38 2.7 10.38C3.6 10.38 4.33 11.11 4.33 12.01C4.33 12.91 3.6 13.63 2.7 13.63C2.31 13.63 2 13.94 2 14.33V14.8C2 18.9 3.25 20.15 7.35 20.15H16.65C20.75 20.15 22 18.9 22 14.8C22 14.41 21.69 14.1 21.3 14.1C20.4 14.1 19.67 13.37 19.67 12.47C19.67 11.57 20.4 10.84 21.3 10.84ZM9 8.87999C9.55 8.87999 10 9.32999 10 9.87999C10 10.43 9.56 10.88 9 10.88C8.45 10.88 8 10.43 8 9.87999C8 9.32999 8.44 8.87999 9 8.87999ZM15 15.88C14.44 15.88 13.99 15.43 13.99 14.88C13.99 14.33 14.44 13.88 14.99 13.88C15.54 13.88 15.99 14.33 15.99 14.88C15.99 15.43 15.56 15.88 15 15.88ZM15.9 9.47999L9.17 16.21C9.02 16.36 8.83 16.43 8.64 16.43C8.45 16.43 8.26 16.36 8.11 16.21C7.82 15.92 7.82 15.44 8.11 15.15L14.84 8.41999C15.13 8.12999 15.61 8.12999 15.9 8.41999C16.19 8.70999 16.19 9.18999 15.9 9.47999Z" fill="#008BBA"/>
</svg>
