<svg width="16" height="16" viewBox="0 0 16 16" fill="none" xmlns="http://www.w3.org/2000/svg">
<path d="M7.99918 13.1666H6.21251C5.43918 13.1666 4.76584 12.7 4.49918 11.98C4.22584 11.26 4.42584 10.4666 5.00584 9.95331L10.3325 5.29331C10.6525 5.01331 10.6592 4.63331 10.5658 4.37331C10.4658 4.11331 10.2125 3.83331 9.78584 3.83331H7.99918C7.72584 3.83331 7.49918 3.60665 7.49918 3.33331C7.49918 3.05998 7.72584 2.83331 7.99918 2.83331H9.78584C10.5592 2.83331 11.2325 3.29998 11.4992 4.01998C11.7725 4.73998 11.5725 5.53331 10.9925 6.04665L5.66584 10.7066C5.34584 10.9866 5.33918 11.3666 5.43251 11.6266C5.53251 11.8866 5.78584 12.1666 6.21251 12.1666H7.99918C8.27251 12.1666 8.49918 12.3933 8.49918 12.6666C8.49918 12.94 8.27251 13.1666 7.99918 13.1666Z" fill="#ff8625"/>
<path d="M13.3325 10H11.3325C10.5992 10 9.99918 10.6 9.99918 11.3333V13.3333C9.99918 14.0667 10.5992 14.6667 11.3325 14.6667H13.3325C14.0658 14.6667 14.6658 14.0667 14.6658 13.3333V11.3333C14.6658 10.6 14.0658 10 13.3325 10ZM12.3392 13C11.9725 13 11.6725 12.7 11.6725 12.3333C11.6725 11.9667 11.9658 11.6667 12.3392 11.6667H12.3458C12.7125 11.6667 13.0125 11.9667 13.0125 12.3333C13.0125 12.7 12.7125 13 12.3392 13Z" fill="#ff8625"/>
<path d="M3.64583 1.33331C2.35917 1.33331 1.3125 2.37998 1.3125 3.66665C1.3125 4.95331 2.35917 5.99998 3.64583 5.99998C4.9325 5.99998 5.97917 4.95331 5.97917 3.66665C5.97917 2.37998 4.93917 1.33331 3.64583 1.33331ZM3.6725 4.33331C3.30583 4.33331 3.00583 4.03331 3.00583 3.66665C3.00583 3.29998 3.29917 2.99998 3.6725 2.99998H3.67917C4.04583 2.99998 4.34583 3.29998 4.34583 3.66665C4.34583 4.03331 4.04583 4.33331 3.6725 4.33331Z" fill="#ff8625"/>
</svg>
