<svg width="16" height="16" viewBox="0 0 16 16" fill="none" xmlns="http://www.w3.org/2000/svg">
<path d="M8.00004 3.33337C5.42737 3.33337 3.33337 5.42737 3.33337 8.00004C3.33337 10.5727 5.42737 12.6667 8.00004 12.6667C10.5727 12.6667 12.6667 10.5727 12.6667 8.00004C12.6667 5.42737 10.5727 3.33337 8.00004 3.33337ZM8.00004 11.3334C6.16204 11.3334 4.66671 9.83804 4.66671 8.00004C4.66671 6.16204 6.16204 4.66671 8.00004 4.66671C9.83804 4.66671 11.3334 6.16204 11.3334 8.00004C11.3334 9.83804 9.83804 11.3334 8.00004 11.3334Z" fill="#ff8625"/>
<path d="M8 6C6.91533 6 6 6.91533 6 8C6 9.08467 6.91533 10 8 10C9.08467 10 10 9.08467 10 8C10 6.91533 9.08467 6 8 6Z" fill="#ff8625"/>
</svg>
