<svg width="24" height="24" viewBox="0 0 24 24" fill="none" xmlns="http://www.w3.org/2000/svg">
<rect width="24" height="24" rx="12" fill="#BDEFFF"/>
<path d="M17.18 10.135L17.035 8.75C16.825 7.24 16.14 6.625 14.675 6.625H13.495H12.755H11.235H10.495H9.29501C7.82501 6.625 7.14501 7.24 6.93001 8.765L6.79501 10.14C6.74501 10.675 6.89001 11.195 7.20501 11.6C7.58501 12.095 8.17001 12.375 8.82001 12.375C9.45001 12.375 10.055 12.06 10.435 11.555C10.775 12.06 11.355 12.375 12 12.375C12.645 12.375 13.21 12.075 13.555 11.575C13.94 12.07 14.535 12.375 15.155 12.375C15.82 12.375 16.42 12.08 16.795 11.56C17.095 11.16 17.23 10.655 17.18 10.135Z" fill="#008BBA"/>
<path d="M11.675 14.3301C11.04 14.3951 10.56 14.9351 10.56 15.5751V16.9451C10.56 17.0801 10.67 17.1901 10.805 17.1901H13.19C13.325 17.1901 13.435 17.0801 13.435 16.9451V15.7501C13.44 14.7051 12.825 14.2101 11.675 14.3301Z" fill="#008BBA"/>
<path d="M16.685 13.2V14.69C16.685 16.07 15.565 17.19 14.185 17.19C14.05 17.19 13.94 17.08 13.94 16.945V15.75C13.94 15.11 13.745 14.61 13.365 14.27C13.03 13.965 12.575 13.815 12.01 13.815C11.885 13.815 11.76 13.82 11.625 13.835C10.735 13.925 10.06 14.675 10.06 15.575V16.945C10.06 17.08 9.95 17.19 9.815 17.19C8.435 17.19 7.315 16.07 7.315 14.69V13.21C7.315 12.86 7.66 12.625 7.985 12.74C8.12 12.785 8.255 12.82 8.395 12.84C8.455 12.85 8.52 12.86 8.58 12.86C8.66 12.87 8.74 12.875 8.82 12.875C9.4 12.875 9.97 12.66 10.42 12.29C10.85 12.66 11.41 12.875 12 12.875C12.595 12.875 13.145 12.67 13.575 12.3C14.025 12.665 14.585 12.875 15.155 12.875C15.245 12.875 15.335 12.87 15.42 12.86C15.48 12.855 15.535 12.85 15.59 12.84C15.745 12.82 15.885 12.775 16.025 12.73C16.35 12.62 16.685 12.86 16.685 13.2Z" fill="#008BBA"/>
</svg>
