<svg width="16" height="16" viewBox="0 0 16 16" fill="none" xmlns="http://www.w3.org/2000/svg">
<path d="M10.7934 1.33337H5.20671C2.78004 1.33337 1.33337 2.78004 1.33337 5.20671V10.7867C1.33337 13.22 2.78004 14.6667 5.20671 14.6667H10.7867C13.2134 14.6667 14.66 13.22 14.66 10.7934V5.20671C14.6667 2.78004 13.22 1.33337 10.7934 1.33337ZM11.1867 6.46671L7.40671 10.2467C7.31337 10.34 7.18671 10.3934 7.05337 10.3934C6.92004 10.3934 6.79337 10.34 6.70004 10.2467L4.81337 8.36004C4.62004 8.16671 4.62004 7.84671 4.81337 7.65337C5.00671 7.46004 5.32671 7.46004 5.52004 7.65337L7.05337 9.18671L10.48 5.76004C10.6734 5.56671 10.9934 5.56671 11.1867 5.76004C11.38 5.95337 11.38 6.26671 11.1867 6.46671Z" fill="#ff8625"/>
</svg>
