<svg width="320" height="37" viewBox="0 0 320 37" fill="none" xmlns="http://www.w3.org/2000/svg">
<path d="M309.81 28.245C310.795 23.915 317.21 23.92 318.19 28.25C318.765 30.79 317.185 32.94 315.8 34.27C314.795 35.24 313.205 35.24 312.195 34.27C310.815 32.94 309.235 30.785 309.81 28.245Z" stroke="#FFB0D1" stroke-width="1.5"/>
<path d="M312.625 29.75L313.375 30.5L315.375 28.5" stroke="#FFB0D1" stroke-width="1.5" stroke-linecap="round" stroke-linejoin="round"/>
<path d="M6 14.9999H6.5C7.05 14.9999 7.5 14.5499 7.5 13.9999V8.99994H3C2.25 8.99994 1.595 9.41493 1.255 10.0249" stroke="#FFB0D1" stroke-linecap="round" stroke-linejoin="round"/>
<path d="M1 16.4999C1 17.3299 1.67 17.9999 2.5 17.9999H3C3 17.4499 3.45 16.9999 4 16.9999C4.55 16.9999 5 17.4499 5 17.9999H7C7 17.4499 7.45 16.9999 8 16.9999C8.55 16.9999 9 17.4499 9 17.9999H9.5C10.33 17.9999 11 17.3299 11 16.4999V14.9999H9.5C9.225 14.9999 9 14.7749 9 14.4999V12.9999C9 12.7249 9.225 12.4999 9.5 12.4999H10.145L9.29001 11.0049C9.11001 10.6949 8.78001 10.4999 8.42001 10.4999H7.5V13.9999C7.5 14.5499 7.05 14.9999 6.5 14.9999H6" stroke="#FFB0D1" stroke-linecap="round" stroke-linejoin="round"/>
<path d="M4 19C4.55228 19 5 18.5523 5 18C5 17.4477 4.55228 17 4 17C3.44772 17 3 17.4477 3 18C3 18.5523 3.44772 19 4 19Z" stroke="#FFB0D1" stroke-linecap="round" stroke-linejoin="round"/>
<path d="M8 19C8.55228 19 9 18.5523 9 18C9 17.4477 8.55228 17 8 17C7.44772 17 7 17.4477 7 18C7 18.5523 7.44772 19 8 19Z" stroke="#FFB0D1" stroke-linecap="round" stroke-linejoin="round"/>
<path d="M11 13.9999V14.9999H9.5C9.225 14.9999 9 14.7749 9 14.4999V12.9999C9 12.7249 9.225 12.4999 9.5 12.4999H10.145L11 13.9999Z" stroke="#FFB0D1" stroke-linecap="round" stroke-linejoin="round"/>
<path d="M1 11.9999H4" stroke="#FFB0D1" stroke-linecap="round" stroke-linejoin="round"/>
<path d="M1 13.4999H3" stroke="#FFB0D1" stroke-linecap="round" stroke-linejoin="round"/>
<path d="M1 14.9999H2" stroke="#FFB0D1" stroke-linecap="round" stroke-linejoin="round"/>
<path d="M8 19.1142C21.9152 20.4381 50.7184 17.1283 82.1695 9.18521C121.483 -0.743703 131.211 21.0998 159.581 31.5252C187.952 41.9505 209.433 1.73847 241.046 5.21362C272.66 8.68877 301.03 36.4898 314 35.9934" stroke="#FFB0D1" stroke-width="0.5" stroke-linecap="round" stroke-linejoin="round" stroke-dasharray="5 5"/>
<path fill-rule="evenodd" clip-rule="evenodd" d="M89.4632 19.2511L88.8571 17L88.2511 19.2511L86 19.8571L88.2511 20.4632L88.8571 22.7143L88.9615 22.3266L88.9913 22.4372L89.0833 22.4125L89.0109 22.1434L89.4632 20.4632L91.1434 20.0109L91.4125 20.0833L91.4372 19.9913L91.3266 19.9615L91.7143 19.8571L89.4632 19.2511ZM91.3266 19.9615L91.0621 19.8903L91.0373 19.9823L91.1434 20.0109L91.3266 19.9615ZM89.0109 22.1434L88.9823 22.0373L88.8903 22.0621L88.9615 22.3266L89.0109 22.1434ZM89.1934 17.4733L89.1908 17.474L89.1843 17.4981L89.1429 17.4869L89.1014 17.4981L89.0949 17.474L89.0923 17.4733L89.1429 17.2857L89.1934 17.4733ZM89.2944 17.8485L89.3954 18.2237L89.3034 18.2484L89.2024 17.8732L89.2944 17.8485ZM89.4964 18.5988L89.5974 18.974L89.5055 18.9988L89.4044 18.6236L89.4964 18.5988ZM89.6984 19.3492L89.7489 19.5368L89.9365 19.5873L89.9118 19.6792L89.6712 19.6145L89.6065 19.3739L89.6984 19.3492ZM90.3117 19.6883L90.6869 19.7893L90.6621 19.8813L90.287 19.7803L90.3117 19.6883ZM91.8117 20.0949L91.8124 20.0923L92 20.1429L91.8124 20.1934L91.8117 20.1908L91.7877 20.1843L91.7988 20.1429L91.7877 20.1014L91.8117 20.0949ZM91.4372 20.2944L91.0621 20.3954L91.0373 20.3034L91.4125 20.2024L91.4372 20.2944ZM90.6869 20.4964L90.3117 20.5974L90.287 20.5055L90.6621 20.4044L90.6869 20.4964ZM89.9365 20.6984L89.7489 20.7489L89.6984 20.9365L89.6065 20.9118L89.6712 20.6712L89.9118 20.6065L89.9365 20.6984ZM89.5974 21.3117L89.4964 21.6869L89.4044 21.6621L89.5055 21.287L89.5974 21.3117ZM89.3954 22.0621L89.2944 22.4372L89.2024 22.4125L89.3034 22.0373L89.3954 22.0621ZM89.1908 22.8117L89.1934 22.8124L89.1429 23L89.0923 22.8124L89.0949 22.8117L89.1014 22.7877L89.1429 22.7988L89.1843 22.7877L89.1908 22.8117ZM88.7893 21.6869L88.6883 21.3117L88.7803 21.287L88.8813 21.6621L88.7893 21.6869ZM88.5873 20.9365L88.5368 20.7489L88.3492 20.6984L88.3739 20.6065L88.6145 20.6712L88.6792 20.9118L88.5873 20.9365ZM87.974 20.5974L87.5988 20.4964L87.6236 20.4044L87.9988 20.5055L87.974 20.5974ZM87.2237 20.3954L86.8485 20.2944L86.8732 20.2024L87.2484 20.3034L87.2237 20.3954ZM86.474 20.1908L86.4733 20.1934L86.2857 20.1429L86.4733 20.0923L86.474 20.0949L86.4981 20.1014L86.4869 20.1429L86.4981 20.1843L86.474 20.1908ZM86.8485 19.9913L87.2237 19.8903L87.2484 19.9823L86.8732 20.0833L86.8485 19.9913ZM87.5988 19.7893L87.974 19.6883L87.9988 19.7803L87.6236 19.8813L87.5988 19.7893ZM88.3492 19.5873L88.5368 19.5368L88.5873 19.3492L88.6792 19.3739L88.6145 19.6145L88.3739 19.6792L88.3492 19.5873ZM88.6883 18.974L88.7893 18.5988L88.8813 18.6236L88.7803 18.9988L88.6883 18.974ZM88.8903 18.2237L88.9913 17.8485L89.0833 17.8732L88.9823 18.2484L88.8903 18.2237Z" fill="#FFB0D1"/>
<g clip-path="url(#clip0_7_1456)">
<path d="M190.989 8.25348C190.649 7.89375 190.313 7.52875 189.987 7.15322C189.828 6.97308 189.674 6.79069 189.519 6.60831C189.353 6.40688 189.196 6.16615 188.976 6.01577C188.791 5.88994 188.639 6.19239 188.61 6.30728C188.548 6.55825 188.569 6.83264 188.688 7.07381C188.808 7.31498 189.019 7.5274 189.194 7.73723C189.353 7.92723 189.513 8.1142 189.676 8.30197C190.004 8.67447 190.335 9.0417 190.68 9.3992C190.889 9.62069 191.096 9.35433 191.145 9.15779C191.213 8.88264 191.206 8.48337 190.989 8.25348Z" fill="#FFB0D1"/>
<path d="M193.579 5.65564C192.784 4.36931 192.042 3.05086 191.341 1.71384C191.299 1.63621 191.212 1.53774 191.11 1.53837C191.009 1.53901 190.929 1.64134 190.89 1.71827C190.759 1.9747 190.792 2.32268 190.918 2.5783C191.598 3.93256 192.342 5.25785 193.141 6.55481C193.189 6.63401 193.271 6.74077 193.383 6.73947C193.495 6.73816 193.575 6.6328 193.612 6.55207C193.729 6.29552 193.736 5.90925 193.582 5.65643L193.579 5.65564Z" fill="#FFB0D1"/>
<path d="M196.231 5.43695C196.21 4.87999 196.205 4.32393 196.22 3.76956C196.222 3.70594 196.224 3.64233 196.226 3.57872C196.232 3.43257 196.225 3.62643 196.228 3.48935C196.235 3.34017 196.241 3.19099 196.25 3.0426C196.265 2.76396 196.283 2.48611 196.304 2.20904C196.318 1.98796 196.308 1.57503 196.053 1.45768C195.798 1.34033 195.69 1.7371 195.673 1.88996C195.545 3.06756 195.524 4.26198 195.57 5.44714C195.575 5.63126 195.647 6.07882 195.922 6.07589C196.196 6.07297 196.238 5.61503 196.231 5.43998L196.231 5.43695Z" fill="#FFB0D1"/>
</g>
<path d="M270.315 30.6072L270.315 30.6072L270.315 30.6072L270.65 30.6506L270.593 30.3174L270.593 30.3174L270.593 30.3173L270.593 30.3171L270.593 30.3167L270.592 30.3126L270.589 30.2939C270.587 30.2769 270.583 30.251 270.58 30.2177C270.572 30.1508 270.563 30.0542 270.558 29.9378C270.549 29.7033 270.557 29.3966 270.623 29.0936C270.689 28.7894 270.81 28.5069 271.012 28.3004C271.208 28.1 271.5 27.9511 271.954 27.9425C272.266 27.9367 272.51 28.0113 272.706 28.1379C272.904 28.2657 273.066 28.4555 273.198 28.6999C273.463 29.1948 273.584 29.881 273.616 30.6011C273.649 31.3154 273.594 32.0352 273.531 32.579C273.499 32.8503 273.466 33.0763 273.44 33.2342C273.434 33.2686 273.429 33.2997 273.425 33.3274C273.397 33.3346 273.365 33.3427 273.331 33.3514C273.174 33.3908 272.95 33.4437 272.681 33.4976C272.141 33.6056 271.426 33.7161 270.714 33.7303C269.995 33.7446 269.309 33.6602 268.809 33.4035C268.562 33.2771 268.365 33.1116 268.227 32.8992C268.09 32.6875 268.003 32.4155 267.995 32.0611C267.986 31.6077 268.123 31.3103 268.316 31.1065C268.514 30.8964 268.792 30.7644 269.093 30.686C269.393 30.608 269.699 30.5876 269.934 30.5877C270.051 30.5877 270.147 30.5928 270.215 30.5978C270.248 30.6003 270.274 30.6028 270.291 30.6045L270.31 30.6066L270.314 30.6071L270.314 30.6071L270.315 30.6072Z" stroke="#FFB0D1" stroke-width="0.5"/>
<defs>
<clipPath id="clip0_7_1456">
<rect width="9.04648" height="7.23719" fill="white" transform="translate(188 8.78363) rotate(-76.1545)"/>
</clipPath>
</defs>
</svg>
