<svg width="16" height="16" viewBox="0 0 16 16" fill="none" xmlns="http://www.w3.org/2000/svg">
<path d="M14.0599 4.65326C13.4933 4.0266 12.5466 3.71327 11.1733 3.71327H11.0133V3.6866C11.0133 2.5666 11.0133 1.17993 8.50661 1.17993H7.49328C4.98661 1.17993 4.98661 2.57327 4.98661 3.6866V3.71993H4.82661C3.44661 3.71993 2.50661 4.03326 1.93994 4.65993C1.27994 5.39326 1.29994 6.37993 1.36661 7.05326L1.37328 7.09993L1.4174 7.56321C1.43166 7.71299 1.51241 7.84843 1.63857 7.93041C1.79893 8.03461 2.02015 8.1756 2.15994 8.25327C2.25328 8.31327 2.35328 8.3666 2.45328 8.41993C3.59328 9.0466 4.84661 9.4666 6.11994 9.67327C6.17994 10.2999 6.45328 11.0333 7.91328 11.0333C9.37328 11.0333 9.65994 10.3066 9.70661 9.65993C11.0666 9.43993 12.3799 8.9666 13.5666 8.27326C13.6066 8.25326 13.6333 8.23326 13.6666 8.21326C13.9104 8.07549 14.1625 7.90823 14.3964 7.74162C14.5099 7.66075 14.582 7.53452 14.5974 7.39601L14.5999 7.37327L14.6333 7.05993C14.6399 7.01993 14.6399 6.9866 14.6466 6.93993C14.6999 6.2666 14.6866 5.3466 14.0599 4.65326ZM8.72661 9.21993C8.72661 9.9266 8.72661 10.0333 7.90661 10.0333C7.08661 10.0333 7.08661 9.9066 7.08661 9.2266V8.3866H8.72661V9.21993ZM5.93994 3.71327V3.6866C5.93994 2.55327 5.93994 2.13327 7.49328 2.13327H8.50661C10.0599 2.13327 10.0599 2.55993 10.0599 3.6866V3.71993H5.93994V3.71327Z" fill="#008BBA"/>
<path d="M13.6456 9.28343C14.0003 9.11751 14.4077 9.3984 14.3723 9.78839L14.1601 12.1266C14.0201 13.4599 13.4734 14.8199 10.5401 14.8199H5.46006C2.52672 14.8199 1.98006 13.4599 1.84006 12.1332L1.63935 9.9254C1.6043 9.53994 2.00224 9.25939 2.35586 9.41673C3.11559 9.75476 4.25608 10.2377 5.02976 10.4538C5.19335 10.4995 5.32589 10.618 5.40399 10.7688C5.82484 11.5816 6.68651 12.0132 7.91339 12.0132C9.12824 12.0132 9.99995 11.5649 10.4226 10.749C10.5008 10.5981 10.6338 10.4796 10.7975 10.4335C11.6223 10.2012 12.8451 9.6579 13.6456 9.28343Z" fill="#008BBA"/>
</svg>
